<svg xmlns="http://www.w3.org/2000/svg" viewBox="0 0 109.62 73.55"><defs><style>.cls-1{fill:#a72126;}.cls-2{fill:#231815;}.cls-3{fill:none;stroke:#a72126;stroke-width:1.62px;}.cls-4{fill:#fff;}</style></defs><g id="레이어_2" data-name="레이어 2"><g id="레이어_1-2" data-name="레이어 1"><path class="cls-1" d="M25.65,16.12v.24c0,.13,0,.21,0,.23a8.34,8.34,0,0,1-2.3,6A7.5,7.5,0,0,1,17.7,25a7.48,7.48,0,0,1-5.64-2.42,8.62,8.62,0,0,1-1.69-2.74,9.35,9.35,0,0,1-.56-3.29,8.24,8.24,0,0,1,.61-3.19,8.46,8.46,0,0,1,.76-1.43,9.37,9.37,0,0,1,1.06-1.31,7.33,7.33,0,0,1,2.53-1.76,8.62,8.62,0,0,1,3.12-.56,7.09,7.09,0,0,1,4.29,1.29A8,8,0,0,1,25,13.25H21.34a5,5,0,0,0-1.58-1.31,4.62,4.62,0,0,0-2-.43A4.45,4.45,0,0,0,14.36,13,5.16,5.16,0,0,0,13,16.62a5.14,5.14,0,0,0,1.38,3.64,4.55,4.55,0,0,0,3.45,1.49,4.27,4.27,0,0,0,2.53-.82,4.44,4.44,0,0,0,1.69-2.12H16V16.12Z"/><rect class="cls-2" x="27.42" y="17.29" width="7.77" height="2.6"/><path class="cls-2" d="M51.34,13.36H47.66A5.05,5.05,0,0,0,46.07,12a4.43,4.43,0,0,0-2-.45A4.33,4.33,0,0,0,40.7,13a5.18,5.18,0,0,0-1.37,3.64,5.21,5.21,0,0,0,1.37,3.64,4.48,4.48,0,0,0,3.38,1.49,4.18,4.18,0,0,0,2-.45,4.08,4.08,0,0,0,1.5-1.27h3.66a9.76,9.76,0,0,1-1.27,2.15,7.42,7.42,0,0,1-1.6,1.53,7.75,7.75,0,0,1-9.85-1.17,8.41,8.41,0,0,1-1.26-1.74,8.26,8.26,0,0,1-.75-2.05,10.32,10.32,0,0,1-.25-2.24,8.39,8.39,0,0,1,.61-3.19,8.8,8.8,0,0,1,1.8-2.74A8,8,0,0,1,41.1,8.86a7.76,7.76,0,0,1,3-.58,8.21,8.21,0,0,1,2.33.31,6.54,6.54,0,0,1,2,.95A7.27,7.27,0,0,1,50,11.1a11.43,11.43,0,0,1,1.34,2.26"/><polyline class="cls-2" points="54.96 15.08 54.98 8.6 64.68 8.6 64.68 11.42 57.98 11.42 57.98 15.08 63.29 15.08 63.29 17.86 57.98 17.86 57.98 21.84 64.68 21.84 64.68 24.66 54.98 24.66 54.96 17.86"/><path class="cls-2" d="M66.93,16.05,67,8.6h6a6.14,6.14,0,0,1,4.19,1.33,4.6,4.6,0,0,1,1.49,3.69,4.15,4.15,0,0,1-.23,1.48,5.3,5.3,0,0,1-.76,1.31,4.09,4.09,0,0,1-1.42,1.11,6.73,6.73,0,0,1-1.83.65l3.16,6.49H74.27l-3.14-6.38L70,18.36v6.3H67l0-6.19m3-2.42h.65A15.5,15.5,0,0,0,73,15.86a4.14,4.14,0,0,0,1.68-.51,3.06,3.06,0,0,0,.75-.71,1.74,1.74,0,0,0,.2-.93,2.18,2.18,0,0,0-.77-1.87A2.39,2.39,0,0,0,74,11.5a14.09,14.09,0,0,0-1.43-.2c-.54-.05-1-.08-1.44-.08H70Z"/><polygon class="cls-2" points="88.24 8.6 88.24 11.42 85.33 11.42 85.33 24.66 82.32 24.66 82.32 11.42 79.42 11.42 79.42 8.6 88.24 8.6"/><path class="cls-3" d="M108.81,18.76c0,9.77-7.24,17.69-16.18,17.69H17C8.06,36.45.81,28.53.81,18.76S8.06,1.06,17,1.06H92.63C101.57,1.06,108.81,9,108.81,18.76Z"/><path class="cls-2" d="M90.39,13.74S95.2,7.19,97.81,9c0,0,2.21,3.56-3.52,9,0,0-3,4,1.44,2,0,0,3.9-2.85,1.43.85,0,0-4.56,5.41-7,2.28,0,0-2.74-2.42,3.38-8.54,0,0,3.65-3.28-.52-1.57,0,0-4.55,2.85-2.6.72"/><path class="cls-1" d="M101.53,5.58a3,3,0,0,1-4.41.58,3.68,3.68,0,0,1-.34-4.84A3,3,0,0,1,101.2.74a3.66,3.66,0,0,1,.33,4.84"/><path class="cls-4" d="M98.87,2.53a.6.6,0,0,1-.91.08.74.74,0,0,1-.11-1,.61.61,0,0,1,.92-.08.75.75,0,0,1,.1,1"/><rect class="cls-1" x="30.43" y="30.47" width="65.62" height="10.96"/><path class="cls-4" d="M36.51,36.48a2.12,2.12,0,0,1,.2,1.11,2.27,2.27,0,0,1-.59,1.34,2,2,0,0,1-3-.23A2.73,2.73,0,0,1,32.56,37h1a1.43,1.43,0,0,0,.34,1,1,1,0,0,0,.81.39.91.91,0,0,0,1-.76.71.71,0,0,0-.07-.52,1.15,1.15,0,0,0-.34-.38,2.24,2.24,0,0,0-.71-.28,3,3,0,0,1-.76-.27,2,2,0,0,1-.8-.73,2,2,0,0,1-.25-1.14,2.33,2.33,0,0,1,.5-1.25,1.64,1.64,0,0,1,1.4-.6,1.56,1.56,0,0,1,1.5.82,2.89,2.89,0,0,1,.42,1.48h-1a1.63,1.63,0,0,0-.23-.81.83.83,0,0,0-.72-.33.82.82,0,0,0-.67.25.91.91,0,0,0-.2.51.65.65,0,0,0,.19.51,1.48,1.48,0,0,0,.43.31,3.24,3.24,0,0,0,.67.23,2.87,2.87,0,0,1,.83.37,1.75,1.75,0,0,1,.61.72"/><polygon class="cls-4" points="39.85 36.89 39.85 39.28 38.87 39.28 38.87 36.93 37.04 32.65 38.12 32.65 39.36 35.5 40.58 32.65 41.67 32.65 39.85 36.89"/><path class="cls-4" d="M45.93,36.48a2.12,2.12,0,0,1,.2,1.11,2.27,2.27,0,0,1-.59,1.34,2,2,0,0,1-3-.23A2.73,2.73,0,0,1,42,37h1a1.43,1.43,0,0,0,.34,1,1,1,0,0,0,.81.39,1,1,0,0,0,.69-.22,1,1,0,0,0,.31-.54.76.76,0,0,0-.08-.52,1,1,0,0,0-.34-.38,2.24,2.24,0,0,0-.71-.28,3,3,0,0,1-.76-.27,2,2,0,0,1-.8-.73,2,2,0,0,1-.25-1.14,2.42,2.42,0,0,1,.5-1.25,1.64,1.64,0,0,1,1.4-.6,1.56,1.56,0,0,1,1.5.82A2.89,2.89,0,0,1,46,34.72H45a1.54,1.54,0,0,0-.23-.81,1,1,0,0,0-1.39-.08,1,1,0,0,0-.2.51.69.69,0,0,0,.19.51,1.48,1.48,0,0,0,.43.31,3.24,3.24,0,0,0,.67.23,2.87,2.87,0,0,1,.83.37,1.75,1.75,0,0,1,.61.72"/><polygon class="cls-4" points="48.94 33.84 48.94 39.28 47.95 39.28 47.96 33.82 46.37 33.82 46.37 32.69 50.52 32.69 50.52 33.84 48.94 33.84"/><polygon class="cls-4" points="51.19 39.25 51.19 32.69 54.85 32.69 54.86 33.85 52.17 33.85 52.17 35.33 54.72 35.34 54.72 36.48 52.17 36.48 52.17 38.11 54.92 38.11 54.92 39.27 51.19 39.25"/><polygon class="cls-4" points="59.56 39.28 59.57 35.62 59.53 35.62 58.62 39.27 57.54 39.27 56.65 35.69 56.61 35.71 56.61 39.25 55.64 39.27 55.64 32.66 56.76 32.66 58.08 37.6 59.37 32.66 60.55 32.66 60.55 39.28 59.56 39.28"/><path class="cls-4" d="M67.58,36.48a2.23,2.23,0,0,1,.2,1.11,2.33,2.33,0,0,1-.59,1.34,2,2,0,0,1-3-.23A2.73,2.73,0,0,1,63.63,37h1a1.49,1.49,0,0,0,.34,1,1.06,1.06,0,0,0,.82.39.93.93,0,0,0,.68-.22,1,1,0,0,0,.31-.54.71.71,0,0,0-.08-.52,1,1,0,0,0-.34-.38,2.07,2.07,0,0,0-.71-.28,3,3,0,0,1-.75-.27,1.89,1.89,0,0,1-.8-.73,1.93,1.93,0,0,1-.25-1.14,2.26,2.26,0,0,1,.5-1.25,1.62,1.62,0,0,1,1.39-.6,1.57,1.57,0,0,1,1.51.82,2.87,2.87,0,0,1,.41,1.48h-1a1.45,1.45,0,0,0-.23-.81.8.8,0,0,0-.71-.33.79.79,0,0,0-.67.25.91.91,0,0,0-.2.51.64.64,0,0,0,.18.51,1.62,1.62,0,0,0,.43.31,3.46,3.46,0,0,0,.67.23,2.65,2.65,0,0,1,.83.37,1.77,1.77,0,0,1,.62.72"/><polygon class="cls-4" points="68.45 39.25 68.45 32.69 72.11 32.69 72.12 33.85 69.43 33.85 69.43 35.33 71.98 35.34 71.98 36.48 69.43 36.48 69.43 38.11 72.17 38.11 72.17 39.27 68.45 39.25"/><path class="cls-4" d="M76,39.27l-1.41-2.5h-.68v2.5l-1,0V32.68H75a1.66,1.66,0,0,1,1.26.58,2,2,0,0,1,.53,1.41,2.41,2.41,0,0,1-.33,1.23,1.64,1.64,0,0,1-.79.74l1.48,2.63Zm-.45-3.92a.9.9,0,0,0,.26-.68.74.74,0,0,0-.26-.62,1,1,0,0,0-.63-.2h-1V35.6h1a.87.87,0,0,0,.63-.25"/><polygon class="cls-4" points="80.24 39.27 79.15 39.27 77.19 32.65 78.19 32.65 79.69 37.68 81.19 32.65 82.2 32.65 80.24 39.27"/><polygon class="cls-4" points="82.72 39.25 82.72 32.65 83.7 32.65 83.7 39.27 82.72 39.25"/><path class="cls-4" d="M89,37a4.1,4.1,0,0,1-.7,1.64,1.79,1.79,0,0,1-1.58.82,2,2,0,0,1-1.74-1A4.51,4.51,0,0,1,84.33,36,4.37,4.37,0,0,1,85,33.47a2,2,0,0,1,1.74-1,1.79,1.79,0,0,1,1.61.83A3.94,3.94,0,0,1,89,34.89h-1a2.18,2.18,0,0,0-.37-.81.93.93,0,0,0-.82-.4,1.12,1.12,0,0,0-1,.63A3.18,3.18,0,0,0,85.36,36a3.27,3.27,0,0,0,.37,1.68,1.1,1.1,0,0,0,1,.65.94.94,0,0,0,.82-.43A2.82,2.82,0,0,0,88,37Z"/><polygon class="cls-4" points="89.67 39.25 89.67 32.69 93.33 32.69 93.34 33.85 90.65 33.85 90.65 35.33 93.2 35.34 93.2 36.48 90.65 36.48 90.65 38.11 93.39 38.11 93.39 39.27 89.67 39.25"/><path class="cls-2" d="M3.38,73.43v-7.2H4.83v7.2Z"/><path class="cls-2" d="M5.85,71.08,7.26,71a1.74,1.74,0,0,0,.52,1,1.58,1.58,0,0,0,1,.34A1.61,1.61,0,0,0,9.89,72a.87.87,0,0,0,.35-.7.69.69,0,0,0-.14-.43,1.23,1.23,0,0,0-.53-.31c-.17-.06-.56-.16-1.16-.31a4,4,0,0,1-1.64-.72,1.85,1.85,0,0,1-.66-1.44,1.83,1.83,0,0,1,.31-1,2,2,0,0,1,.9-.73,3.52,3.52,0,0,1,1.41-.25,3,3,0,0,1,2,.59,2.09,2.09,0,0,1,.72,1.59L10,68.35a1.27,1.27,0,0,0-.4-.8,1.49,1.49,0,0,0-.92-.24,1.69,1.69,0,0,0-1,.26A.51.51,0,0,0,7.5,68a.54.54,0,0,0,.21.43,3.78,3.78,0,0,0,1.34.49,7.37,7.37,0,0,1,1.57.51,2.14,2.14,0,0,1,.79.73,2.18,2.18,0,0,1,.29,1.15,2.13,2.13,0,0,1-.35,1.16,2,2,0,0,1-1,.8,4,4,0,0,1-1.56.26,3.14,3.14,0,0,1-2.1-.63A2.7,2.7,0,0,1,5.85,71.08Z"/><path class="cls-2" d="M12.62,69.87A4.55,4.55,0,0,1,13,68a3.53,3.53,0,0,1,.67-1,3,3,0,0,1,.93-.65,4,4,0,0,1,1.55-.28,3.39,3.39,0,0,1,2.55,1,3.79,3.79,0,0,1,1,2.74,3.71,3.71,0,0,1-1,2.72,3.33,3.33,0,0,1-2.53,1,3.39,3.39,0,0,1-2.55-1A3.72,3.72,0,0,1,12.62,69.87Zm1.5-.05a2.74,2.74,0,0,0,.56,1.86,1.86,1.86,0,0,0,1.44.63,1.8,1.8,0,0,0,1.42-.63,2.76,2.76,0,0,0,.56-1.88A2.7,2.7,0,0,0,17.56,68a1.82,1.82,0,0,0-1.44-.61,1.86,1.86,0,0,0-1.45.62A2.69,2.69,0,0,0,14.12,69.82Z"/><path class="cls-2" d="M20,73.55l1.78-7.44h1L21,73.55Z"/><path class="cls-2" d="M23.48,73.43v-7.2h1.45v7.2Z"/><path class="cls-2" d="M26.32,73.43v-7.2h5.33v1.22H27.77V69h3.61v1.22H27.77v1.95h4v1.22Z"/><path class="cls-2" d="M37.62,70.78l1.41.45A3.16,3.16,0,0,1,38,73a3.38,3.38,0,0,1-4.26-.41,3.73,3.73,0,0,1-.93-2.68,4,4,0,0,1,.93-2.79,3.19,3.19,0,0,1,2.44-1,3,3,0,0,1,2.14.78A2.81,2.81,0,0,1,39,68.21l-1.44.35a1.53,1.53,0,0,0-.53-.89,1.56,1.56,0,0,0-1-.32,1.63,1.63,0,0,0-1.3.57,2.85,2.85,0,0,0-.5,1.86,3,3,0,0,0,.49,2,1.62,1.62,0,0,0,1.28.58,1.46,1.46,0,0,0,1-.37A2.13,2.13,0,0,0,37.62,70.78Z"/><path class="cls-2" d="M47.42,72.14v1.29H42.59a3.29,3.29,0,0,1,.47-1.38,9.38,9.38,0,0,1,1.55-1.73,9.62,9.62,0,0,0,1.14-1.17A1.55,1.55,0,0,0,46,68.3a1,1,0,0,0-.25-.71,1,1,0,0,0-.69-.24.89.89,0,0,0-.68.26,1.34,1.34,0,0,0-.3.86l-1.37-.14a2.24,2.24,0,0,1,.77-1.63,2.59,2.59,0,0,1,1.62-.5,2.29,2.29,0,0,1,1.67.58,1.86,1.86,0,0,1,.61,1.42,2.6,2.6,0,0,1-.17.93,3.72,3.72,0,0,1-.56.92,7.91,7.91,0,0,1-.9.92c-.43.4-.71.66-.83.79a2.82,2.82,0,0,0-.28.38Z"/><path class="cls-2" d="M48.35,67.61V66.33h4.72v1A7.19,7.19,0,0,0,51.88,69,9.81,9.81,0,0,0,51,71.26a8.71,8.71,0,0,0-.31,2.17H49.32a9.4,9.4,0,0,1,.61-3.05,10.28,10.28,0,0,1,1.56-2.77Z"/><path class="cls-2" d="M56.27,66.2a2,2,0,0,1,1.64.75,4.81,4.81,0,0,1,.7,2.93,4.75,4.75,0,0,1-.71,2.93,2,2,0,0,1-1.63.74,2.05,2.05,0,0,1-1.69-.81,4.78,4.78,0,0,1-.64-2.88,4.75,4.75,0,0,1,.7-2.92A2,2,0,0,1,56.27,66.2Zm0,1.15a.69.69,0,0,0-.45.16,1,1,0,0,0-.3.57,8.13,8.13,0,0,0-.14,1.8,7.54,7.54,0,0,0,.13,1.74,1.22,1.22,0,0,0,.32.63.69.69,0,0,0,.44.15.72.72,0,0,0,.45-.15,1.09,1.09,0,0,0,.3-.58,7.51,7.51,0,0,0,.14-1.79A8.24,8.24,0,0,0,57,68.14a1.29,1.29,0,0,0-.32-.63A.67.67,0,0,0,56.27,67.35Z"/><path class="cls-2" d="M61.86,66.2a2,2,0,0,1,1.63.75,4.73,4.73,0,0,1,.71,2.93,4.75,4.75,0,0,1-.71,2.93,2,2,0,0,1-1.63.74,2.05,2.05,0,0,1-1.69-.81,4.77,4.77,0,0,1-.65-2.88,4.74,4.74,0,0,1,.71-2.92A2,2,0,0,1,61.86,66.2Zm0,1.15a.67.67,0,0,0-.45.16,1,1,0,0,0-.3.57,7.55,7.55,0,0,0-.14,1.8,8.37,8.37,0,0,0,.12,1.74,1.3,1.3,0,0,0,.33.63.67.67,0,0,0,.44.15.72.72,0,0,0,.45-.15,1.09,1.09,0,0,0,.3-.58,7.51,7.51,0,0,0,.14-1.79,8.24,8.24,0,0,0-.12-1.74,1.21,1.21,0,0,0-.33-.63A.65.65,0,0,0,61.86,67.35Z"/><path class="cls-2" d="M68.65,73.43H67.27v-5.2a4.75,4.75,0,0,1-1.78,1V68a3.76,3.76,0,0,0,1.17-.67,2.58,2.58,0,0,0,.87-1.15h1.12Z"/><path class="cls-2" d="M71.27,69.59V68.21h1.37v1.38Zm0,3.84V72.05h1.37v1.38Z"/><path class="cls-2" d="M78.71,72.14v1.29H73.88a3.16,3.16,0,0,1,.47-1.38,9,9,0,0,1,1.55-1.73A9.62,9.62,0,0,0,77,69.15a1.53,1.53,0,0,0,.28-.85,1,1,0,0,0-.24-.71,1,1,0,0,0-.69-.24.88.88,0,0,0-.68.26,1.34,1.34,0,0,0-.3.86L74,68.33a2.24,2.24,0,0,1,.77-1.63,2.59,2.59,0,0,1,1.62-.5,2.31,2.31,0,0,1,1.67.58,1.86,1.86,0,0,1,.61,1.42,2.41,2.41,0,0,1-.18.93,3.66,3.66,0,0,1-.55.92,8.86,8.86,0,0,1-.9.92c-.44.4-.71.66-.83.79a2.82,2.82,0,0,0-.28.38Z"/><path class="cls-2" d="M82,66.2A2,2,0,0,1,83.6,67a4.73,4.73,0,0,1,.71,2.93,4.75,4.75,0,0,1-.71,2.93,2,2,0,0,1-1.63.74,2.05,2.05,0,0,1-1.69-.81,4.78,4.78,0,0,1-.64-2.88,4.75,4.75,0,0,1,.7-2.92A2,2,0,0,1,82,66.2Zm0,1.15a.69.69,0,0,0-.45.16,1,1,0,0,0-.3.57,8.13,8.13,0,0,0-.14,1.8,7.54,7.54,0,0,0,.13,1.74,1.22,1.22,0,0,0,.32.63.69.69,0,0,0,.44.15.72.72,0,0,0,.45-.15,1.09,1.09,0,0,0,.3-.58,7.51,7.51,0,0,0,.14-1.79,8.24,8.24,0,0,0-.12-1.74,1.29,1.29,0,0,0-.32-.63A.67.67,0,0,0,82,67.35Z"/><path class="cls-2" d="M88.76,73.43H87.38v-5.2a4.75,4.75,0,0,1-1.78,1V68a3.76,3.76,0,0,0,1.17-.67,2.58,2.58,0,0,0,.87-1.15h1.12Z"/><path class="cls-2" d="M90.77,71.52l1.33-.17a1.29,1.29,0,0,0,.35.78.92.92,0,0,0,.67.27.9.9,0,0,0,.72-.32,1.24,1.24,0,0,0,.29-.87,1.18,1.18,0,0,0-.28-.83.88.88,0,0,0-.68-.3,2.32,2.32,0,0,0-.63.1l.15-1.12a1.24,1.24,0,0,0,.86-.24.9.9,0,0,0,.29-.69.74.74,0,0,0-.79-.79.81.81,0,0,0-.6.24,1.17,1.17,0,0,0-.31.72l-1.27-.22a2.86,2.86,0,0,1,.4-1,1.75,1.75,0,0,1,.75-.61,2.47,2.47,0,0,1,1.07-.23,2.15,2.15,0,0,1,1.63.65,1.65,1.65,0,0,1-.53,2.71,1.68,1.68,0,0,1,1,.59,1.78,1.78,0,0,1,.37,1.12,2.15,2.15,0,0,1-.69,1.61,2.59,2.59,0,0,1-3.35.11A2.27,2.27,0,0,1,90.77,71.52Z"/><path class="cls-2" d="M7.61,53.84V52.63h3.13V55.5a4.07,4.07,0,0,1-1.32.77,4.75,4.75,0,0,1-1.76.34,4,4,0,0,1-2-.47,3.13,3.13,0,0,1-1.26-1.36A4.35,4.35,0,0,1,4,52.87a4.19,4.19,0,0,1,.47-2,3.25,3.25,0,0,1,1.38-1.34,3.71,3.71,0,0,1,1.72-.36,3.49,3.49,0,0,1,2.1.56,2.61,2.61,0,0,1,1,1.56l-1.45.27a1.48,1.48,0,0,0-.57-.84,1.76,1.76,0,0,0-1.05-.31A1.94,1.94,0,0,0,6.07,51a2.56,2.56,0,0,0-.56,1.79,2.82,2.82,0,0,0,.57,1.92,1.88,1.88,0,0,0,1.49.64,2.46,2.46,0,0,0,.91-.18,3.11,3.11,0,0,0,.79-.43v-.92Z"/><path class="cls-2" d="M12,56.49v-7.2h1.46v7.2Z"/><path class="cls-2" d="M14.5,54.15,15.91,54a1.74,1.74,0,0,0,.52,1,1.53,1.53,0,0,0,1.05.34,1.6,1.6,0,0,0,1.06-.3.88.88,0,0,0,.36-.69.67.67,0,0,0-.15-.44,1.25,1.25,0,0,0-.52-.31c-.17-.06-.56-.16-1.17-.31a4.09,4.09,0,0,1-1.64-.71,1.88,1.88,0,0,1-.66-1.45,1.91,1.91,0,0,1,.31-1,2,2,0,0,1,.9-.73,3.72,3.72,0,0,1,1.42-.25,3,3,0,0,1,2,.6,2.08,2.08,0,0,1,.71,1.58l-1.45.06a1.17,1.17,0,0,0-.4-.79,1.4,1.4,0,0,0-.92-.25,1.69,1.69,0,0,0-1,.26.55.55,0,0,0,0,.89A3.87,3.87,0,0,0,17.7,52a6.6,6.6,0,0,1,1.57.52,1.92,1.92,0,0,1,.79.73,2.14,2.14,0,0,1,.29,1.14A2.12,2.12,0,0,1,20,55.55a2.07,2.07,0,0,1-1,.8,4,4,0,0,1-1.57.26A3.09,3.09,0,0,1,15.38,56,2.75,2.75,0,0,1,14.5,54.15Z"/><path class="cls-2" d="M21.41,54.57V53.19h2.7v1.38Z"/><path class="cls-2" d="M27.32,56.49V55H24.37V53.83l3.12-4.56h1.16v4.56h.89V55h-.89v1.45Zm0-2.66V51.37l-1.66,2.46Z"/><path class="cls-2" d="M33.73,56.49H32.35v-5.2a4.83,4.83,0,0,1-1.78,1.05V51.09a4.21,4.21,0,0,0,1.17-.67,2.64,2.64,0,0,0,.87-1.15h1.12Z"/><path class="cls-2" d="M40.45,55.21v1.28H35.61a3.43,3.43,0,0,1,.47-1.38,9.22,9.22,0,0,1,1.56-1.72,9.44,9.44,0,0,0,1.14-1.18,1.53,1.53,0,0,0,.28-.84,1,1,0,0,0-.24-.71,1.06,1.06,0,0,0-1.38,0,1.34,1.34,0,0,0-.29.86l-1.37-.14a2.22,2.22,0,0,1,.77-1.63,2.58,2.58,0,0,1,1.62-.49,2.35,2.35,0,0,1,1.67.57,1.9,1.9,0,0,1,.61,1.43,2.39,2.39,0,0,1-.18.92,3.66,3.66,0,0,1-.55.92,10.07,10.07,0,0,1-.9.92c-.44.4-.71.66-.83.79a1.9,1.9,0,0,0-.28.39Z"/><path class="cls-2" d="M41.33,54.58l1.33-.16a1.29,1.29,0,0,0,.35.78.92.92,0,0,0,.67.27.91.91,0,0,0,.72-.33,1.21,1.21,0,0,0,.3-.87,1.18,1.18,0,0,0-.28-.82.89.89,0,0,0-.69-.31,2.88,2.88,0,0,0-.63.1l.15-1.12a1.23,1.23,0,0,0,.86-.24.88.88,0,0,0,.29-.69.73.73,0,0,0-.79-.79.83.83,0,0,0-.6.24,1.2,1.2,0,0,0-.31.72l-1.27-.22a2.86,2.86,0,0,1,.4-1,1.82,1.82,0,0,1,.75-.61,2.47,2.47,0,0,1,1.07-.22,2.14,2.14,0,0,1,1.63.64,1.65,1.65,0,0,1-.53,2.71,1.74,1.74,0,0,1,1,.59,1.72,1.72,0,0,1,.37,1.12,2.15,2.15,0,0,1-.69,1.61,2.58,2.58,0,0,1-3.34.11A2.24,2.24,0,0,1,41.33,54.58Z"/><path class="cls-2" d="M47.1,54.57V53.19h2.71v1.38Z"/><path class="cls-2" d="M50.57,56.49v-7.2H52v7.2Z"/><path class="cls-2" d="M58,53.84l1.41.45A3.21,3.21,0,0,1,58.34,56a3.38,3.38,0,0,1-4.26-.41A3.72,3.72,0,0,1,53.15,53a3.91,3.91,0,0,1,.93-2.78,3.16,3.16,0,0,1,2.44-1,3,3,0,0,1,2.14.78,2.8,2.8,0,0,1,.74,1.33L58,51.62a1.48,1.48,0,0,0-.53-.88,1.51,1.51,0,0,0-1-.33,1.61,1.61,0,0,0-1.3.58,2.82,2.82,0,0,0-.5,1.86,3,3,0,0,0,.49,1.94,1.59,1.59,0,0,0,1.28.58,1.43,1.43,0,0,0,1-.37A2.09,2.09,0,0,0,58,53.84Z"/></g></g></svg>