<svg xmlns="http://www.w3.org/2000/svg" viewBox="0 0 111.62 87.2"><defs><style>.cls-1{fill:#a72126;}.cls-2{fill:#231815;}.cls-3{fill:none;stroke:#a72126;stroke-width:1.62px;}.cls-4{fill:#fff;}</style></defs><g id="레이어_2" data-name="레이어 2"><g id="레이어_1-2" data-name="레이어 1"><path class="cls-1" d="M26.11,16.42v.25a.59.59,0,0,0,0,.23A8.48,8.48,0,0,1,23.79,23,7.63,7.63,0,0,1,18,25.44,7.65,7.65,0,0,1,12.27,23a8.86,8.86,0,0,1-1.72-2.79A9.52,9.52,0,0,1,10,16.83a8.35,8.35,0,0,1,.62-3.24,7.79,7.79,0,0,1,.77-1.46,9,9,0,0,1,1.08-1.33A7.73,7.73,0,0,1,15,9a9,9,0,0,1,3.18-.57,7.25,7.25,0,0,1,4.37,1.31,8.29,8.29,0,0,1,2.87,3.76H21.72a5.18,5.18,0,0,0-1.61-1.34,4.77,4.77,0,0,0-2.05-.44,4.57,4.57,0,0,0-3.45,1.52,5.25,5.25,0,0,0-1.39,3.69,5.21,5.21,0,0,0,1.41,3.7,4.63,4.63,0,0,0,3.51,1.52,4.34,4.34,0,0,0,2.58-.83,4.54,4.54,0,0,0,1.72-2.16H16.29V16.42Z"/><rect class="cls-2" x="27.92" y="17.61" width="7.92" height="2.65"/><path class="cls-2" d="M52.28,13.61H48.53a4.9,4.9,0,0,0-1.63-1.42,4.63,4.63,0,0,0-5.46,1.05A5.28,5.28,0,0,0,40.05,17a5.25,5.25,0,0,0,1.39,3.7,4.56,4.56,0,0,0,3.44,1.52,4.2,4.2,0,0,0,2-.46,4.14,4.14,0,0,0,1.53-1.29h3.73a10.14,10.14,0,0,1-1.3,2.19,7.71,7.71,0,0,1-1.63,1.56,7.34,7.34,0,0,1-4.36,1.27A7.45,7.45,0,0,1,39.19,23a7.82,7.82,0,0,1-1.28-1.78,7.94,7.94,0,0,1-.77-2.09,10,10,0,0,1-.25-2.28,8.46,8.46,0,0,1,.62-3.24,8.71,8.71,0,0,1,1.83-2.79A8.4,8.4,0,0,1,41.85,9a8,8,0,0,1,3-.59,8.56,8.56,0,0,1,2.38.32,6.52,6.52,0,0,1,2,1,7.12,7.12,0,0,1,1.67,1.59,11.56,11.56,0,0,1,1.37,2.3"/><polyline class="cls-2" points="55.97 15.36 55.99 8.76 65.86 8.76 65.86 11.63 59.04 11.63 59.04 15.36 64.45 15.36 64.45 18.19 59.04 18.19 59.04 22.24 65.86 22.24 65.86 25.12 55.99 25.12 55.97 18.19"/><path class="cls-2" d="M68.15,16.35l0-7.59h6.09a6.21,6.21,0,0,1,4.26,1.36A4.65,4.65,0,0,1,80,13.87a4.32,4.32,0,0,1-.23,1.51A5.21,5.21,0,0,1,79,16.71a4.09,4.09,0,0,1-1.44,1.13,6.83,6.83,0,0,1-1.87.67l3.22,6.61H75.63l-3.2-6.5-1.19.08v6.42H68.17l0-6.31m3.09-2.46h.66a16.23,16.23,0,0,0,2.42-.19,3.94,3.94,0,0,0,1.7-.53,2.87,2.87,0,0,0,.77-.72A1.69,1.69,0,0,0,77,14a2.22,2.22,0,0,0-.79-1.9,2.42,2.42,0,0,0-.91-.35,14.56,14.56,0,0,0-1.45-.2c-.55,0-1-.08-1.46-.08H71.24Z"/><polygon class="cls-2" points="89.86 8.76 89.86 11.63 86.89 11.63 86.89 25.12 83.83 25.12 83.83 11.63 80.87 11.63 80.87 8.76 89.86 8.76"/><path class="cls-3" d="M110.81,19.1c0,10-7.38,18-16.48,18h-77c-9.1,0-16.48-8.07-16.48-18s7.38-18,16.48-18h77C103.43,1.08,110.81,9.15,110.81,19.1Z"/><path class="cls-2" d="M92,14S97,7.32,99.61,9.2c0,0,2.25,3.63-3.59,9.14,0,0-3,4.06,1.46,2,0,0,4-2.9,1.46.87,0,0-4.64,5.51-7.16,2.32,0,0-2.78-2.47,3.45-8.7,0,0,3.71-3.34-.53-1.6,0,0-4.64,2.9-2.66.73"/><path class="cls-1" d="M103.4,5.68a3,3,0,0,1-4.49.6,3.74,3.74,0,0,1-.35-4.94,3,3,0,0,1,4.49-.59,3.73,3.73,0,0,1,.35,4.93"/><path class="cls-4" d="M100.69,2.58a.63.63,0,0,1-.94.08.77.77,0,0,1-.1-1,.62.62,0,0,1,.93-.08.77.77,0,0,1,.11,1"/><rect class="cls-1" x="30.98" y="31.03" width="66.83" height="11.17"/><path class="cls-4" d="M37.17,37.16a2.07,2.07,0,0,1,.2,1.12,2.33,2.33,0,0,1-.6,1.38,1.84,1.84,0,0,1-1.46.6,1.87,1.87,0,0,1-1.6-.84,2.79,2.79,0,0,1-.56-1.73h1a1.53,1.53,0,0,0,.35,1,1,1,0,0,0,.83.4,1,1,0,0,0,.7-.22,1,1,0,0,0,.31-.56.74.74,0,0,0-.08-.53,1.16,1.16,0,0,0-.35-.38,2.22,2.22,0,0,0-.72-.29,3.08,3.08,0,0,1-.77-.27,1.89,1.89,0,0,1-1.07-1.91,2.44,2.44,0,0,1,.51-1.27A1.66,1.66,0,0,1,35.26,33a1.62,1.62,0,0,1,1.54.84,3,3,0,0,1,.42,1.51h-1a1.58,1.58,0,0,0-.23-.83.84.84,0,0,0-.73-.33.78.78,0,0,0-.68.25.85.85,0,0,0-.2.52.61.61,0,0,0,.18.51,1.5,1.5,0,0,0,.44.32,3.31,3.31,0,0,0,.68.24,2.72,2.72,0,0,1,.85.37,1.84,1.84,0,0,1,.62.74"/><polygon class="cls-4" points="40.58 37.57 40.58 40.01 39.57 40.01 39.57 37.62 37.71 33.26 38.81 33.26 40.07 36.16 41.31 33.26 42.43 33.26 40.58 37.57"/><path class="cls-4" d="M46.77,37.16a2.16,2.16,0,0,1,.2,1.12,2.33,2.33,0,0,1-.6,1.38,2,2,0,0,1-3.07-.24,2.85,2.85,0,0,1-.56-1.73h1a1.47,1.47,0,0,0,.34,1,1.05,1.05,0,0,0,.83.4,1,1,0,0,0,.7-.22,1.05,1.05,0,0,0,.32-.56.8.8,0,0,0-.08-.53,1.16,1.16,0,0,0-.35-.38,2.19,2.19,0,0,0-.73-.29,3,3,0,0,1-.76-.27,1.93,1.93,0,0,1-.82-.75,2,2,0,0,1-.25-1.16,2.51,2.51,0,0,1,.5-1.27A1.68,1.68,0,0,1,44.86,33a1.59,1.59,0,0,1,1.53.84,2.87,2.87,0,0,1,.42,1.51h-1a1.59,1.59,0,0,0-.24-.83.83.83,0,0,0-.73-.33.8.8,0,0,0-.68.25A.92.92,0,0,0,44,35a.62.62,0,0,0,.19.51,1.34,1.34,0,0,0,.43.32,3.42,3.42,0,0,0,.69.24,2.57,2.57,0,0,1,.84.37,1.86,1.86,0,0,1,.63.74"/><polygon class="cls-4" points="49.83 34.47 49.83 40.01 48.82 40.01 48.83 34.45 47.21 34.45 47.21 33.3 51.44 33.3 51.44 34.47 49.83 34.47"/><polygon class="cls-4" points="52.13 39.98 52.13 33.3 55.85 33.3 55.86 34.48 53.12 34.48 53.12 35.98 55.72 35.99 55.72 37.16 53.12 37.16 53.12 38.82 55.92 38.82 55.92 40 52.13 39.98"/><polygon class="cls-4" points="60.65 40.01 60.66 36.28 60.61 36.28 59.69 40 58.59 40 57.68 36.35 57.64 36.37 57.64 39.98 56.66 40 56.66 33.27 57.79 33.27 59.14 38.3 60.45 33.27 61.65 33.27 61.65 40.01 60.65 40.01"/><path class="cls-4" d="M68.81,37.16A2.07,2.07,0,0,1,69,38.28a2.45,2.45,0,0,1-.6,1.38,2,2,0,0,1-3.07-.24,2.85,2.85,0,0,1-.56-1.73h1a1.48,1.48,0,0,0,.35,1,1,1,0,0,0,.83.4,1,1,0,0,0,.7-.22,1,1,0,0,0,.31-.56.74.74,0,0,0-.08-.53,1,1,0,0,0-.34-.38,2.28,2.28,0,0,0-.73-.29,3.23,3.23,0,0,1-.77-.27,1.9,1.9,0,0,1-.81-.75A2,2,0,0,1,65,34.9a2.34,2.34,0,0,1,.5-1.27A1.67,1.67,0,0,1,66.91,33a1.6,1.6,0,0,1,1.53.84,3,3,0,0,1,.42,1.51h-1a1.5,1.5,0,0,0-.23-.83.84.84,0,0,0-.73-.33.8.8,0,0,0-.68.25A.92.92,0,0,0,66,35a.64.64,0,0,0,.18.51,1.65,1.65,0,0,0,.44.32,3.54,3.54,0,0,0,.68.24,2.62,2.62,0,0,1,.85.37,1.84,1.84,0,0,1,.62.74"/><polygon class="cls-4" points="69.7 39.98 69.7 33.3 73.43 33.3 73.44 34.48 70.7 34.48 70.7 35.98 73.3 35.99 73.3 37.16 70.7 37.16 70.7 38.82 73.49 38.82 73.49 40 69.7 39.98"/><path class="cls-4" d="M77.35,40l-1.44-2.55h-.68V40l-1,0V33.29H76.4a1.69,1.69,0,0,1,1.29.58,2.08,2.08,0,0,1,.53,1.44,2.46,2.46,0,0,1-.33,1.25,1.71,1.71,0,0,1-.8.76L78.59,40Zm-.46-4a.91.91,0,0,0,.26-.7.74.74,0,0,0-.26-.63,1,1,0,0,0-.64-.2h-1v1.78h1a.93.93,0,0,0,.64-.25"/><polygon class="cls-4" points="81.71 40 80.6 40 78.6 33.26 79.62 33.26 81.15 38.38 82.68 33.26 83.7 33.26 81.71 40"/><polygon class="cls-4" points="84.24 39.98 84.24 33.26 85.24 33.26 85.24 40 84.24 39.98"/><path class="cls-4" d="M90.62,37.66a4.08,4.08,0,0,1-.71,1.68,1.85,1.85,0,0,1-1.61.83,2,2,0,0,1-1.77-1,4.57,4.57,0,0,1-.65-2.56,4.44,4.44,0,0,1,.65-2.53,2,2,0,0,1,1.77-1,1.83,1.83,0,0,1,1.64.85,4.12,4.12,0,0,1,.67,1.58H89.54a2.19,2.19,0,0,0-.37-.83,1,1,0,0,0-.84-.41,1.16,1.16,0,0,0-1,.64,3.33,3.33,0,0,0-.38,1.69,3.44,3.44,0,0,0,.38,1.71,1.14,1.14,0,0,0,1,.66,1,1,0,0,0,.84-.44,2.92,2.92,0,0,0,.4-.89Z"/><polygon class="cls-4" points="91.32 39.98 91.32 33.3 95.05 33.3 95.06 34.48 92.32 34.48 92.32 35.98 94.91 35.99 94.91 37.16 92.32 37.16 92.32 38.82 95.11 38.82 95.11 40 91.32 39.98"/><path class="cls-2" d="M3.43,74.78V67.46H4.91v7.32Z"/><path class="cls-2" d="M5.94,72.4l1.44-.14a1.78,1.78,0,0,0,.53,1.07A1.61,1.61,0,0,0,9,73.67a1.6,1.6,0,0,0,1.08-.31.89.89,0,0,0,.36-.7.7.7,0,0,0-.15-.45,1.22,1.22,0,0,0-.54-.31c-.17-.06-.56-.17-1.18-.32a4,4,0,0,1-1.67-.73,1.94,1.94,0,0,1-.36-2.52,2.06,2.06,0,0,1,.92-.74,3.67,3.67,0,0,1,1.44-.26,3.13,3.13,0,0,1,2.08.61,2.13,2.13,0,0,1,.73,1.61l-1.48.07a1.21,1.21,0,0,0-.41-.81,1.45,1.45,0,0,0-.93-.25,1.73,1.73,0,0,0-1,.26.56.56,0,0,0,0,.9,3.85,3.85,0,0,0,1.36.49,7.37,7.37,0,0,1,1.6.53,2.14,2.14,0,0,1,.81.74,2.25,2.25,0,0,1,.29,1.17,2.2,2.2,0,0,1-.35,1.18,2.06,2.06,0,0,1-1,.82A4.13,4.13,0,0,1,9,74.92a3.18,3.18,0,0,1-2.14-.65A2.79,2.79,0,0,1,5.94,72.4Z"/><path class="cls-2" d="M12.84,71.17a4.51,4.51,0,0,1,.34-1.88,3.27,3.27,0,0,1,.68-1,3,3,0,0,1,1-.66,4,4,0,0,1,1.58-.29,3.44,3.44,0,0,1,2.59,1,4.48,4.48,0,0,1,0,5.57,3.39,3.39,0,0,1-2.57,1,3.43,3.43,0,0,1-2.6-1A3.74,3.74,0,0,1,12.84,71.17Zm1.53,0A2.73,2.73,0,0,0,14.94,73a2,2,0,0,0,2.91,0,2.79,2.79,0,0,0,.57-1.91,2.74,2.74,0,0,0-.55-1.88,1.89,1.89,0,0,0-1.47-.62,1.86,1.86,0,0,0-1.47.63A2.7,2.7,0,0,0,14.37,71.12Z"/><path class="cls-2" d="M20.34,74.91l1.82-7.58h1.05l-1.83,7.58Z"/><path class="cls-2" d="M23.9,74.78V67.46h1.48v7.32Z"/><path class="cls-2" d="M26.79,74.78V67.46h5.43V68.7H28.27v1.62H32v1.24H28.27v2h4.09v1.23Z"/><path class="cls-2" d="M38.3,72.09l1.44.46a3.23,3.23,0,0,1-1.1,1.78,3.44,3.44,0,0,1-4.34-.42,3.78,3.78,0,0,1-.94-2.72,4,4,0,0,1,.94-2.84,3.23,3.23,0,0,1,2.48-1,3.06,3.06,0,0,1,2.19.8,2.92,2.92,0,0,1,.75,1.35l-1.47.35a1.49,1.49,0,0,0-.54-.9,1.54,1.54,0,0,0-1-.33,1.67,1.67,0,0,0-1.32.58,2.86,2.86,0,0,0-.51,1.9,3.12,3.12,0,0,0,.5,2,1.63,1.63,0,0,0,1.3.59,1.47,1.47,0,0,0,1-.38A2.1,2.1,0,0,0,38.3,72.09Z"/><path class="cls-2" d="M48.28,73.48v1.3H43.36a3.3,3.3,0,0,1,.48-1.4,9.4,9.4,0,0,1,1.58-1.75,9.75,9.75,0,0,0,1.16-1.2,1.5,1.5,0,0,0,.29-.86.88.88,0,0,0-.95-1,.9.9,0,0,0-.69.27,1.3,1.3,0,0,0-.3.88l-1.4-.14a2.3,2.3,0,0,1,.78-1.67,2.68,2.68,0,0,1,1.65-.5,2.37,2.37,0,0,1,1.7.58,1.91,1.91,0,0,1,.62,1.46,2.7,2.7,0,0,1-.17.94,3.87,3.87,0,0,1-.57.94,9.41,9.41,0,0,1-.92.93q-.66.61-.84.81a1.9,1.9,0,0,0-.28.39Z"/><path class="cls-2" d="M49.23,68.86v-1.3H54v1a7.46,7.46,0,0,0-1.21,1.68,9.57,9.57,0,0,0-.94,2.32,8.58,8.58,0,0,0-.32,2.2H50.22a9.39,9.39,0,0,1,.62-3.09,10.41,10.41,0,0,1,1.59-2.83Z"/><path class="cls-2" d="M57.3,67.43a2,2,0,0,1,1.66.76,4.81,4.81,0,0,1,.72,3,4.86,4.86,0,0,1-.72,3,2,2,0,0,1-1.66.75,2.11,2.11,0,0,1-1.73-.82,4.92,4.92,0,0,1-.65-2.93,4.85,4.85,0,0,1,.72-3A2,2,0,0,1,57.3,67.43Zm0,1.16a.73.73,0,0,0-.46.17,1.12,1.12,0,0,0-.31.58,8.45,8.45,0,0,0-.14,1.83,7.74,7.74,0,0,0,.13,1.77,1.26,1.26,0,0,0,.33.65.73.73,0,0,0,.45.16.68.68,0,0,0,.45-.17,1,1,0,0,0,.31-.58,7.71,7.71,0,0,0,.15-1.83,8.38,8.38,0,0,0-.13-1.77,1.25,1.25,0,0,0-.33-.64A.68.68,0,0,0,57.3,68.59Z"/><path class="cls-2" d="M64.21,74.78h-1.4V69.49A4.9,4.9,0,0,1,61,70.56V69.28a3.92,3.92,0,0,0,1.2-.68,2.53,2.53,0,0,0,.88-1.17h1.14Z"/><path class="cls-2" d="M66.31,68.86v-1.3h4.8v1a7.46,7.46,0,0,0-1.21,1.68A10,10,0,0,0,69,72.58a8.53,8.53,0,0,0-.31,2.2H67.29a9.41,9.41,0,0,1,.63-3.09,10.13,10.13,0,0,1,1.58-2.83Z"/><path class="cls-2" d="M72.57,70.88v-1.4H74v1.4Zm0,3.9v-1.4H74v1.4Z"/><path class="cls-2" d="M80.15,73.48v1.3H75.23a3.3,3.3,0,0,1,.48-1.4,9.4,9.4,0,0,1,1.58-1.75,9.75,9.75,0,0,0,1.16-1.2,1.5,1.5,0,0,0,.29-.86,1,1,0,0,0-1.65-.71,1.41,1.41,0,0,0-.3.88l-1.4-.14a2.35,2.35,0,0,1,.79-1.67,2.68,2.68,0,0,1,1.65-.5,2.37,2.37,0,0,1,1.7.58,1.94,1.94,0,0,1,.62,1.46,2.5,2.5,0,0,1-.18.94,3.52,3.52,0,0,1-.56.94,9.41,9.41,0,0,1-.92.93q-.66.61-.84.81a2.46,2.46,0,0,0-.29.39Z"/><path class="cls-2" d="M83.47,67.43a2,2,0,0,1,1.67.76,4.88,4.88,0,0,1,.71,3,4.86,4.86,0,0,1-.72,3,2,2,0,0,1-1.66.75,2.09,2.09,0,0,1-1.72-.82,4.84,4.84,0,0,1-.66-2.93,4.85,4.85,0,0,1,.72-3A2,2,0,0,1,83.47,67.43Zm0,1.16a.68.68,0,0,0-.45.17,1.05,1.05,0,0,0-.31.58,7.71,7.71,0,0,0-.15,1.83,8.38,8.38,0,0,0,.13,1.77,1.34,1.34,0,0,0,.33.65.71.71,0,0,0,.91,0,1.09,1.09,0,0,0,.31-.58,7.85,7.85,0,0,0,.14-1.83,7.74,7.74,0,0,0-.13-1.77,1.18,1.18,0,0,0-.32-.64A.73.73,0,0,0,83.47,68.59Z"/><path class="cls-2" d="M90.39,74.78H89V69.49a4.86,4.86,0,0,1-1.81,1.07V69.28a4,4,0,0,0,1.19-.68,2.56,2.56,0,0,0,.89-1.17h1.14Z"/><path class="cls-2" d="M92.5,72.9l1.4-.14a1.21,1.21,0,0,0,.36.75,1,1,0,0,0,.68.28.93.93,0,0,0,.74-.36A1.6,1.6,0,0,0,96,72.35a1.42,1.42,0,0,0-.31-1A1,1,0,0,0,94.9,71a1.43,1.43,0,0,0-1.09.54l-1.14-.17.72-3.81h3.72v1.31H94.46l-.22,1.25a2.07,2.07,0,0,1,1-.24,2.11,2.11,0,0,1,1.58.68,2.48,2.48,0,0,1,.65,1.77,2.63,2.63,0,0,1-.52,1.61,2.33,2.33,0,0,1-2,1,2.48,2.48,0,0,1-1.65-.54A2.3,2.3,0,0,1,92.5,72.9Z"/><path class="cls-2" d="M3.43,87.07V79.74H4.91v7.33Z"/><path class="cls-2" d="M5.94,84.68l1.44-.14a1.75,1.75,0,0,0,.53,1.07A1.61,1.61,0,0,0,9,86a1.66,1.66,0,0,0,1.08-.3.92.92,0,0,0,.36-.71.65.65,0,0,0-.15-.44,1.13,1.13,0,0,0-.54-.32c-.17-.06-.56-.17-1.18-.32a4,4,0,0,1-1.67-.73,1.89,1.89,0,0,1-.67-1.47,1.92,1.92,0,0,1,.31-1,2.06,2.06,0,0,1,.92-.74,3.67,3.67,0,0,1,1.44-.25,3.13,3.13,0,0,1,2.08.6,2.13,2.13,0,0,1,.73,1.61l-1.48.07a1.21,1.21,0,0,0-.41-.81,1.45,1.45,0,0,0-.93-.25,1.73,1.73,0,0,0-1,.26.56.56,0,0,0,0,.9,3.85,3.85,0,0,0,1.36.49,7.37,7.37,0,0,1,1.6.53,2.09,2.09,0,0,1,.81.75,2.19,2.19,0,0,1,.29,1.16,2.17,2.17,0,0,1-.35,1.18,2.06,2.06,0,0,1-1,.82A4.13,4.13,0,0,1,9,87.2a3.18,3.18,0,0,1-2.14-.65A2.77,2.77,0,0,1,5.94,84.68Z"/><path class="cls-2" d="M12.84,83.45a4.55,4.55,0,0,1,.34-1.88,3.23,3.23,0,0,1,.68-1,2.72,2.72,0,0,1,1-.66,3.88,3.88,0,0,1,1.58-.29,3.44,3.44,0,0,1,2.59,1,4.48,4.48,0,0,1,0,5.57,3.39,3.39,0,0,1-2.57,1,3.43,3.43,0,0,1-2.6-1A3.74,3.74,0,0,1,12.84,83.45Zm1.53,0a2.77,2.77,0,0,0,.57,1.89,1.91,1.91,0,0,0,1.46.64,1.87,1.87,0,0,0,1.45-.64,2.78,2.78,0,0,0,.57-1.91,2.74,2.74,0,0,0-.55-1.88,1.89,1.89,0,0,0-1.47-.62,1.86,1.86,0,0,0-1.47.63A2.74,2.74,0,0,0,14.37,83.4Z"/><path class="cls-2" d="M20.34,87.19l1.82-7.57h1.05l-1.83,7.57Z"/><path class="cls-2" d="M23.9,87.07V79.74h1.48v7.33Z"/><path class="cls-2" d="M26.79,87.07V79.74h5.43V81H28.27V82.6H32v1.24H28.27v2h4.09v1.24Z"/><path class="cls-2" d="M38.3,84.37l1.44.46a3.23,3.23,0,0,1-1.1,1.78,3.44,3.44,0,0,1-4.34-.42,3.78,3.78,0,0,1-.94-2.72,4,4,0,0,1,.94-2.84,3.22,3.22,0,0,1,2.48-1,3.05,3.05,0,0,1,2.19.79,2.92,2.92,0,0,1,.75,1.35l-1.47.35a1.49,1.49,0,0,0-.54-.9,1.54,1.54,0,0,0-1-.33,1.7,1.7,0,0,0-1.32.58,2.88,2.88,0,0,0-.51,1.9,3.12,3.12,0,0,0,.5,2,1.63,1.63,0,0,0,1.3.59,1.47,1.47,0,0,0,1-.38A2.1,2.1,0,0,0,38.3,84.37Z"/><path class="cls-2" d="M48.28,85.76v1.31H43.36a3.25,3.25,0,0,1,.48-1.4,9.08,9.08,0,0,1,1.58-1.76,9.75,9.75,0,0,0,1.16-1.2,1.5,1.5,0,0,0,.29-.86,1,1,0,0,0-.25-.72.94.94,0,0,0-.7-.26.9.9,0,0,0-.69.27,1.3,1.3,0,0,0-.3.88l-1.4-.14a2.26,2.26,0,0,1,.78-1.66A2.62,2.62,0,0,1,46,79.71a2.37,2.37,0,0,1,1.7.59,1.87,1.87,0,0,1,.62,1.45,2.7,2.7,0,0,1-.17.94,3.87,3.87,0,0,1-.57.94,8.41,8.41,0,0,1-.92.93q-.66.61-.84.81a2.65,2.65,0,0,0-.28.39Z"/><path class="cls-2" d="M49.23,81.14v-1.3H54v1a7.46,7.46,0,0,0-1.21,1.68,9.48,9.48,0,0,0-.94,2.33,8.52,8.52,0,0,0-.32,2.2H50.22a9.4,9.4,0,0,1,.62-3.1,10.56,10.56,0,0,1,1.59-2.83Z"/><path class="cls-2" d="M57.3,79.71a2,2,0,0,1,1.66.76,4.81,4.81,0,0,1,.72,3,4.84,4.84,0,0,1-.72,3,2,2,0,0,1-1.66.75,2.11,2.11,0,0,1-1.73-.82,4.92,4.92,0,0,1-.65-2.93,4.85,4.85,0,0,1,.72-3A2,2,0,0,1,57.3,79.71Zm0,1.16a.73.73,0,0,0-.46.17,1.16,1.16,0,0,0-.31.58,8.45,8.45,0,0,0-.14,1.83,7.9,7.9,0,0,0,.13,1.78,1.22,1.22,0,0,0,.33.64.73.73,0,0,0,.45.16.68.68,0,0,0,.45-.17,1,1,0,0,0,.31-.58,7.71,7.71,0,0,0,.15-1.83,8.38,8.38,0,0,0-.13-1.77,1.3,1.3,0,0,0-.33-.64A.68.68,0,0,0,57.3,80.87Z"/><path class="cls-2" d="M64.21,87.07h-1.4v-5.3A4.9,4.9,0,0,1,61,82.84V81.56a3.92,3.92,0,0,0,1.2-.68,2.53,2.53,0,0,0,.88-1.17h1.14Z"/><path class="cls-2" d="M67.51,83.11a1.64,1.64,0,0,1-.79-.63,1.7,1.7,0,0,1-.25-.88A1.75,1.75,0,0,1,67,80.25a2.31,2.31,0,0,1,1.63-.54,2.26,2.26,0,0,1,1.62.54,1.73,1.73,0,0,1,.58,1.35,1.67,1.67,0,0,1-.26.91,1.73,1.73,0,0,1-.75.6,2,2,0,0,1,.93.72,1.88,1.88,0,0,1,.32,1.08,2.21,2.21,0,0,1-.65,1.65,2.37,2.37,0,0,1-1.72.64,2.63,2.63,0,0,1-1.67-.53,2,2,0,0,1-.78-1.7,2.17,2.17,0,0,1,.29-1.09A1.94,1.94,0,0,1,67.51,83.11Zm.16,1.73a1.27,1.27,0,0,0,.3.9,1,1,0,0,0,.74.33.93.93,0,0,0,.72-.32,1.26,1.26,0,0,0,.29-.9,1.16,1.16,0,0,0-.29-.82,1,1,0,0,0-.74-.32.88.88,0,0,0-.77.36A1.33,1.33,0,0,0,67.67,84.84Zm.13-3.14a.9.9,0,0,0,1.51.65.89.89,0,0,0,.24-.66.85.85,0,0,0-.24-.63.81.81,0,0,0-.62-.23.92.92,0,0,0-.65.23A.88.88,0,0,0,67.8,81.7Z"/><path class="cls-2" d="M72.57,83.16v-1.4H74v1.4Zm0,3.91V85.66H74v1.41Z"/><path class="cls-2" d="M80.15,85.76v1.31H75.23a3.25,3.25,0,0,1,.48-1.4,9.08,9.08,0,0,1,1.58-1.76,9.75,9.75,0,0,0,1.16-1.2,1.5,1.5,0,0,0,.29-.86,1,1,0,0,0-.25-.72,1.06,1.06,0,0,0-1.4,0,1.41,1.41,0,0,0-.3.88l-1.4-.14a2.3,2.3,0,0,1,.79-1.66,2.62,2.62,0,0,1,1.65-.51,2.37,2.37,0,0,1,1.7.59,1.9,1.9,0,0,1,.62,1.45,2.5,2.5,0,0,1-.18.94,3.52,3.52,0,0,1-.56.94,8.41,8.41,0,0,1-.92.93q-.66.61-.84.81a3.89,3.89,0,0,0-.29.39Z"/><path class="cls-2" d="M83.47,79.71a2,2,0,0,1,1.67.76,4.88,4.88,0,0,1,.71,3,4.84,4.84,0,0,1-.72,3,2,2,0,0,1-1.66.75,2.09,2.09,0,0,1-1.72-.82,4.84,4.84,0,0,1-.66-2.93,4.85,4.85,0,0,1,.72-3A2,2,0,0,1,83.47,79.71Zm0,1.16A.68.68,0,0,0,83,81a1.09,1.09,0,0,0-.31.58,7.71,7.71,0,0,0-.15,1.83,8.56,8.56,0,0,0,.13,1.78,1.3,1.3,0,0,0,.33.64.71.71,0,0,0,.91,0,1.05,1.05,0,0,0,.31-.58,7.85,7.85,0,0,0,.14-1.83,7.74,7.74,0,0,0-.13-1.77,1.22,1.22,0,0,0-.32-.64A.73.73,0,0,0,83.47,80.87Z"/><path class="cls-2" d="M90.39,87.07H89v-5.3a4.86,4.86,0,0,1-1.81,1.07V81.56a4,4,0,0,0,1.19-.68,2.56,2.56,0,0,0,.89-1.17h1.14Z"/><path class="cls-2" d="M92.51,85.37l1.36-.15a1,1,0,0,0,.26.62.8.8,0,0,0,.56.2.93.93,0,0,0,.74-.4A3.5,3.5,0,0,0,95.82,84a1.69,1.69,0,0,1-1.33.61A2,2,0,0,1,93,83.93a2.45,2.45,0,0,1-.63-1.74,2.5,2.5,0,0,1,.67-1.8,2.39,2.39,0,0,1,3.51.18,4.44,4.44,0,0,1,.72,2.84,4.5,4.5,0,0,1-.75,2.9,2.42,2.42,0,0,1-1.94.89,2.1,2.1,0,0,1-1.39-.46A2.24,2.24,0,0,1,92.51,85.37Zm3.18-3.07a1.58,1.58,0,0,0-.31-1,.93.93,0,0,0-.72-.38.83.83,0,0,0-.65.31,1.59,1.59,0,0,0-.26,1,1.64,1.64,0,0,0,.28,1,.89.89,0,0,0,.7.33.84.84,0,0,0,.68-.32A1.35,1.35,0,0,0,95.69,82.3Z"/><path class="cls-2" d="M6.88,54.84V53.61h3.19v2.91a4,4,0,0,1-1.35.8,5.06,5.06,0,0,1-1.78.34,4,4,0,0,1-2-.48A3.11,3.11,0,0,1,3.65,55.8a4.42,4.42,0,0,1-.43-1.95,4.24,4.24,0,0,1,.48-2,3.23,3.23,0,0,1,1.4-1.36,3.73,3.73,0,0,1,1.76-.37A3.44,3.44,0,0,1,9,50.66a2.53,2.53,0,0,1,1,1.58l-1.46.27a1.57,1.57,0,0,0-.59-.85,1.73,1.73,0,0,0-1.06-.31A2,2,0,0,0,5.31,52a2.61,2.61,0,0,0-.57,1.83,2.87,2.87,0,0,0,.58,2,1.93,1.93,0,0,0,1.52.65,2.56,2.56,0,0,0,.93-.18,3.46,3.46,0,0,0,.81-.44v-.93Z"/><path class="cls-2" d="M11.39,57.53V50.21h1.48v7.32Z"/><path class="cls-2" d="M13.9,55.15,15.34,55a1.73,1.73,0,0,0,.53,1.06,1.56,1.56,0,0,0,1.07.34,1.66,1.66,0,0,0,1.08-.3.9.9,0,0,0,.36-.71.67.67,0,0,0-.15-.44,1.14,1.14,0,0,0-.53-.31c-.18-.06-.57-.17-1.19-.32a4,4,0,0,1-1.67-.73,1.89,1.89,0,0,1-.67-1.47,1.8,1.8,0,0,1,.32-1.05,1.92,1.92,0,0,1,.91-.74,3.67,3.67,0,0,1,1.44-.26,3.08,3.08,0,0,1,2.08.61,2.13,2.13,0,0,1,.73,1.61l-1.48.07a1.26,1.26,0,0,0-.41-.82,1.52,1.52,0,0,0-.93-.24,1.73,1.73,0,0,0-1,.26.55.55,0,0,0-.24.46.57.57,0,0,0,.22.44,3.85,3.85,0,0,0,1.36.49,7.37,7.37,0,0,1,1.6.53,2.14,2.14,0,0,1,.81.74,2.25,2.25,0,0,1,.29,1.17,2.2,2.2,0,0,1-.35,1.18,2.06,2.06,0,0,1-1,.82,4.34,4.34,0,0,1-1.59.26A3.18,3.18,0,0,1,14.79,57,2.84,2.84,0,0,1,13.9,55.15Z"/><path class="cls-2" d="M20.93,55.58v-1.4h2.76v1.4Z"/><path class="cls-2" d="M27,57.53V56.06H24V54.83l3.18-4.65h1.18v4.65h.9v1.23h-.9v1.47Zm0-2.7V52.32l-1.69,2.51Z"/><path class="cls-2" d="M33.49,57.53H32.08V52.24a4.86,4.86,0,0,1-1.81,1.07V52a4.24,4.24,0,0,0,1.19-.68,2.66,2.66,0,0,0,.89-1.17h1.14Z"/><path class="cls-2" d="M40.33,56.23v1.3H35.41a3.3,3.3,0,0,1,.48-1.4,9.26,9.26,0,0,1,1.57-1.75,9.34,9.34,0,0,0,1.17-1.2,1.58,1.58,0,0,0,.29-.86,1,1,0,0,0-.25-.73,1,1,0,0,0-.7-.25.93.93,0,0,0-.7.27,1.38,1.38,0,0,0-.3.88l-1.4-.14a2.29,2.29,0,0,1,.79-1.67,2.62,2.62,0,0,1,1.64-.5,2.38,2.38,0,0,1,1.71.58,1.94,1.94,0,0,1,.62,1.46,2.5,2.5,0,0,1-.18.94,3.81,3.81,0,0,1-.56.94,10.73,10.73,0,0,1-.92.93c-.44.41-.73.68-.84.81a2,2,0,0,0-.29.39Z"/><path class="cls-2" d="M41.23,55.59l1.36-.17a1.27,1.27,0,0,0,.35.8,1,1,0,0,0,.69.27,1,1,0,0,0,.73-.33,1.26,1.26,0,0,0,.3-.89,1.16,1.16,0,0,0-.29-.83.89.89,0,0,0-.69-.31,2.45,2.45,0,0,0-.65.1l.16-1.14a1.26,1.26,0,0,0,.87-.25.89.89,0,0,0,.3-.7.84.84,0,0,0-.22-.59.8.8,0,0,0-.59-.22.86.86,0,0,0-.61.25,1.15,1.15,0,0,0-.31.73l-1.3-.22A2.9,2.9,0,0,1,41.74,51a1.74,1.74,0,0,1,.76-.62,2.42,2.42,0,0,1,1.09-.23,2.18,2.18,0,0,1,1.66.66,1.72,1.72,0,0,1,.51,1.22,1.74,1.74,0,0,1-1,1.54,1.72,1.72,0,0,1,1,.6,1.75,1.75,0,0,1,.37,1.14,2.19,2.19,0,0,1-.7,1.64,2.43,2.43,0,0,1-1.75.68A2.4,2.4,0,0,1,42,57.09,2.23,2.23,0,0,1,41.23,55.59Z"/><path class="cls-2" d="M47.11,55.58v-1.4h2.76v1.4Z"/><path class="cls-2" d="M55.37,54.84l1.44.45a3.26,3.26,0,0,1-1.1,1.79,3.17,3.17,0,0,1-1.94.58,3.12,3.12,0,0,1-2.4-1,3.78,3.78,0,0,1-.94-2.72,4,4,0,0,1,.94-2.84,3.23,3.23,0,0,1,2.49-1,3.05,3.05,0,0,1,2.18.8,2.92,2.92,0,0,1,.75,1.35l-1.47.35a1.49,1.49,0,0,0-.54-.9,1.54,1.54,0,0,0-1-.33,1.67,1.67,0,0,0-1.32.58,2.86,2.86,0,0,0-.51,1.9,3.07,3.07,0,0,0,.5,2,1.6,1.6,0,0,0,1.3.59,1.51,1.51,0,0,0,1-.37A2.16,2.16,0,0,0,55.37,54.84Z"/><path class="cls-2" d="M62.76,54.84l1.44.45a3.26,3.26,0,0,1-1.1,1.79,3.17,3.17,0,0,1-1.94.58,3.12,3.12,0,0,1-2.4-1,3.78,3.78,0,0,1-.94-2.72,4,4,0,0,1,.94-2.84,3.23,3.23,0,0,1,2.49-1,3.05,3.05,0,0,1,2.18.8,2.92,2.92,0,0,1,.75,1.35l-1.46.35a1.53,1.53,0,0,0-1.55-1.23,1.67,1.67,0,0,0-1.32.58,2.86,2.86,0,0,0-.51,1.9,3.07,3.07,0,0,0,.5,2,1.62,1.62,0,0,0,1.3.59,1.51,1.51,0,0,0,1-.37A2.16,2.16,0,0,0,62.76,54.84Z"/><path class="cls-2" d="M65.09,55.15,66.53,55a1.78,1.78,0,0,0,.53,1.06,1.58,1.58,0,0,0,1.07.34,1.66,1.66,0,0,0,1.08-.3.9.9,0,0,0,.36-.71.67.67,0,0,0-.15-.44,1.14,1.14,0,0,0-.53-.31c-.18-.06-.57-.17-1.19-.32A4,4,0,0,1,66,53.6a1.89,1.89,0,0,1-.67-1.47,1.8,1.8,0,0,1,.32-1.05,1.92,1.92,0,0,1,.91-.74A3.67,3.67,0,0,1,68,50.08a3.08,3.08,0,0,1,2.08.61,2.13,2.13,0,0,1,.73,1.61l-1.48.07a1.26,1.26,0,0,0-.41-.82,1.5,1.5,0,0,0-.93-.24,1.73,1.73,0,0,0-1,.26.55.55,0,0,0-.24.46.57.57,0,0,0,.22.44,3.85,3.85,0,0,0,1.36.49,7.37,7.37,0,0,1,1.6.53,2.14,2.14,0,0,1,.81.74,2.25,2.25,0,0,1,.29,1.17,2.2,2.2,0,0,1-.35,1.18,2.06,2.06,0,0,1-1,.82,4.34,4.34,0,0,1-1.59.26A3.18,3.18,0,0,1,66,57,2.84,2.84,0,0,1,65.09,55.15Z"/><path class="cls-2" d="M72.12,55.58v-1.4h2.76v1.4Z"/><path class="cls-2" d="M75.7,57.53V50.21h2.38a8.18,8.18,0,0,1,1.76.11,1.93,1.93,0,0,1,1,.71,2.31,2.31,0,0,1,.42,1.43,2.46,2.46,0,0,1-.24,1.14,2.08,2.08,0,0,1-.62.72,2.3,2.3,0,0,1-.77.35,9.49,9.49,0,0,1-1.53.1h-1v2.76Zm1.48-6.08v2.08H78a3.7,3.7,0,0,0,1.17-.12,1,1,0,0,0,.46-.36.92.92,0,0,0,.17-.57,1,1,0,0,0-.23-.66,1,1,0,0,0-.6-.32,6.26,6.26,0,0,0-1.06,0Z"/><path class="cls-2" d="M82.48,57.53V50.21H84v7.32Z"/><path class="cls-2" d="M85.33,57.53V50.21h1.48v7.32Z"/></g></g></svg>