<svg version="1.1" class="highcharts-root" style="font-family:&quot;Lucida Grande&quot;, &quot;Lucida Sans Unicode&quot;, Arial, Helvetica, sans-serif;font-size:12px;" xmlns="http://www.w3.org/2000/svg" width="140" height="50" viewBox="0 0 140 50"><desc>Created with Highcharts 8.1.2</desc><defs><clipPath id="highcharts-pp2x12k-2495-"><rect x="0" y="0" width="140" height="50" fill="none"></rect></clipPath><clipPath id="highcharts-pp2x12k-2521-"><rect x="0" y="25" width="140" height="25" fill="none"></rect></clipPath><clipPath id="highcharts-pp2x12k-2522-"><rect x="0" y="0" width="140" height="25" fill="none"></rect></clipPath><clipPath id="highcharts-pp2x12k-2523-"><rect x="0" y="25" width="140" height="25" fill="none"></rect></clipPath><clipPath id="highcharts-pp2x12k-2524-"><rect x="0" y="0" width="140" height="25" fill="none"></rect></clipPath><clipPath id="highcharts-pp2x12k-2526-"><rect x="0" y="25" width="140" height="25" fill="none"></rect></clipPath><clipPath id="highcharts-pp2x12k-2527-"><rect x="0" y="0" width="140" height="25" fill="none"></rect></clipPath><clipPath id="highcharts-pp2x12k-2553-"><rect x="0" y="25" width="140" height="25" fill="none"></rect></clipPath><clipPath id="highcharts-pp2x12k-2554-"><rect x="0" y="0" width="140" height="25" fill="none"></rect></clipPath><clipPath id="highcharts-pp2x12k-2556-"><rect x="0" y="25" width="140" height="25" fill="none"></rect></clipPath><clipPath id="highcharts-pp2x12k-2557-"><rect x="0" y="0" width="140" height="25" fill="none"></rect></clipPath><clipPath id="highcharts-pp2x12k-2559-"><rect x="0" y="25" width="140" height="25" fill="none"></rect></clipPath><clipPath id="highcharts-pp2x12k-2560-"><rect x="0" y="0" width="140" height="25" fill="none"></rect></clipPath><clipPath id="highcharts-pp2x12k-2562-"><rect x="0" y="25" width="140" height="25" fill="none"></rect></clipPath><clipPath id="highcharts-pp2x12k-2563-"><rect x="0" y="0" width="140" height="25" fill="none"></rect></clipPath><clipPath id="highcharts-pp2x12k-2565-"><rect x="0" y="25" width="140" height="25" fill="none"></rect></clipPath><clipPath id="highcharts-pp2x12k-2566-"><rect x="0" y="0" width="140" height="25" fill="none"></rect></clipPath><clipPath id="highcharts-pp2x12k-2568-"><rect x="0" y="25" width="140" height="25" fill="none"></rect></clipPath><clipPath id="highcharts-pp2x12k-2569-"><rect x="0" y="0" width="140" height="25" fill="none"></rect></clipPath><clipPath id="highcharts-pp2x12k-2571-"><rect x="0" y="25" width="140" height="25" fill="none"></rect></clipPath><clipPath id="highcharts-pp2x12k-2572-"><rect x="0" y="0" width="140" height="25" fill="none"></rect></clipPath><clipPath id="highcharts-pp2x12k-2574-"><rect x="0" y="25" width="140" height="25" fill="none"></rect></clipPath><clipPath id="highcharts-pp2x12k-2575-"><rect x="0" y="0" width="140" height="25" fill="none"></rect></clipPath><clipPath id="highcharts-pp2x12k-2577-"><rect x="0" y="25" width="140" height="25" fill="none"></rect></clipPath><clipPath id="highcharts-pp2x12k-2578-"><rect x="0" y="0" width="140" height="25" fill="none"></rect></clipPath><clipPath id="highcharts-pp2x12k-2580-"><rect x="0" y="25" width="140" height="25" fill="none"></rect></clipPath><clipPath id="highcharts-pp2x12k-2581-"><rect x="0" y="0" width="140" height="25" fill="none"></rect></clipPath><clipPath id="highcharts-pp2x12k-2583-"><rect x="0" y="25" width="140" height="25" fill="none"></rect></clipPath><clipPath id="highcharts-pp2x12k-2584-"><rect x="0" y="0" width="140" height="25" fill="none"></rect></clipPath><clipPath id="highcharts-pp2x12k-2586-"><rect x="0" y="25" width="140" height="25" fill="none"></rect></clipPath><clipPath id="highcharts-pp2x12k-2587-"><rect x="0" y="0" width="140" height="25" fill="none"></rect></clipPath><clipPath id="highcharts-pp2x12k-2589-"><rect x="0" y="25" width="140" height="25" fill="none"></rect></clipPath><clipPath id="highcharts-pp2x12k-2590-"><rect x="0" y="0" width="140" height="25" fill="none"></rect></clipPath><clipPath id="highcharts-pp2x12k-2592-"><rect x="0" y="25" width="140" height="25" fill="none"></rect></clipPath><clipPath id="highcharts-pp2x12k-2593-"><rect x="0" y="0" width="140" height="25" fill="none"></rect></clipPath><clipPath id="highcharts-pp2x12k-2595-"><rect x="0" y="25" width="140" height="25" fill="none"></rect></clipPath><clipPath id="highcharts-pp2x12k-2596-"><rect x="0" y="0" width="140" height="25" fill="none"></rect></clipPath><clipPath id="highcharts-pp2x12k-2623-"><rect x="0" y="13" width="140" height="37" fill="none"></rect></clipPath><clipPath id="highcharts-pp2x12k-2624-"><rect x="0" y="0" width="140" height="13" fill="none"></rect></clipPath><clipPath id="highcharts-pp2x12k-2626-"><rect x="0" y="13" width="140" height="37" fill="none"></rect></clipPath><clipPath id="highcharts-pp2x12k-2627-"><rect x="0" y="0" width="140" height="13" fill="none"></rect></clipPath><clipPath id="highcharts-pp2x12k-2629-"><rect x="0" y="13" width="140" height="37" fill="none"></rect></clipPath><clipPath id="highcharts-pp2x12k-2630-"><rect x="0" y="0" width="140" height="13" fill="none"></rect></clipPath><clipPath id="highcharts-pp2x12k-2632-"><rect x="0" y="13" width="140" height="37" fill="none"></rect></clipPath><clipPath id="highcharts-pp2x12k-2633-"><rect x="0" y="0" width="140" height="13" fill="none"></rect></clipPath><clipPath id="highcharts-pp2x12k-2635-"><rect x="0" y="13" width="140" height="37" fill="none"></rect></clipPath><clipPath id="highcharts-pp2x12k-2636-"><rect x="0" y="0" width="140" height="13" fill="none"></rect></clipPath><clipPath id="highcharts-pp2x12k-2638-"><rect x="0" y="13" width="140" height="37" fill="none"></rect></clipPath><clipPath id="highcharts-pp2x12k-2639-"><rect x="0" y="0" width="140" height="13" fill="none"></rect></clipPath><clipPath id="highcharts-pp2x12k-2641-"><rect x="0" y="13" width="140" height="37" fill="none"></rect></clipPath><clipPath id="highcharts-pp2x12k-2642-"><rect x="0" y="0" width="140" height="13" fill="none"></rect></clipPath><clipPath id="highcharts-pp2x12k-2644-"><rect x="0" y="13" width="140" height="37" fill="none"></rect></clipPath><clipPath id="highcharts-pp2x12k-2645-"><rect x="0" y="0" width="140" height="13" fill="none"></rect></clipPath><clipPath id="highcharts-pp2x12k-2647-"><rect x="0" y="13" width="140" height="37" fill="none"></rect></clipPath><clipPath id="highcharts-pp2x12k-2648-"><rect x="0" y="0" width="140" height="13" fill="none"></rect></clipPath><clipPath id="highcharts-pp2x12k-2650-"><rect x="0" y="13" width="140" height="37" fill="none"></rect></clipPath><clipPath id="highcharts-pp2x12k-2651-"><rect x="0" y="0" width="140" height="13" fill="none"></rect></clipPath><clipPath id="highcharts-pp2x12k-2653-"><rect x="0" y="13" width="140" height="37" fill="none"></rect></clipPath><clipPath id="highcharts-pp2x12k-2654-"><rect x="0" y="0" width="140" height="13" fill="none"></rect></clipPath><clipPath id="highcharts-pp2x12k-2656-"><rect x="0" y="13" width="140" height="37" fill="none"></rect></clipPath><clipPath id="highcharts-pp2x12k-2657-"><rect x="0" y="0" width="140" height="13" fill="none"></rect></clipPath><clipPath id="highcharts-pp2x12k-2659-"><rect x="0" y="13" width="140" height="37" fill="none"></rect></clipPath><clipPath id="highcharts-pp2x12k-2660-"><rect x="0" y="0" width="140" height="13" fill="none"></rect></clipPath></defs><rect fill="transparent" class="highcharts-background" x="0" y="0" width="140" height="50" rx="0" ry="0"></rect><rect fill="none" class="highcharts-plot-background" x="0" y="0" width="140" height="50"></rect><rect fill="none" class="highcharts-plot-border" data-z-index="1" x="0" y="0" width="140" height="50"></rect><g class="highcharts-grid highcharts-xaxis-grid" data-z-index="1"><path fill="none" data-z-index="1" class="highcharts-grid-line" d="M -0.5 0 L -0.5 50" opacity="1"></path><path fill="none" data-z-index="1" class="highcharts-grid-line" d="M 69.5 0 L 69.5 50" opacity="1"></path><path fill="none" data-z-index="1" class="highcharts-grid-line" d="M 139.5 0 L 139.5 50" opacity="1"></path></g><g class="highcharts-grid highcharts-yaxis-grid" data-z-index="1"><path fill="none" stroke="#e6e6e6" stroke-width="1" data-z-index="1" class="highcharts-grid-line" d="M 0 50.5 L 140 50.5" opacity="1"></path><path fill="none" stroke="#e6e6e6" stroke-width="1" data-z-index="1" class="highcharts-grid-line" d="M 0 -0.5 L 140 -0.5" opacity="1"></path></g><g class="highcharts-axis highcharts-xaxis" data-z-index="2"><path fill="none" class="highcharts-tick" stroke="#ccd6eb" stroke-width="1" d="M -0.5 50 L -0.5 60" opacity="1"></path><path fill="none" class="highcharts-tick" stroke="#ccd6eb" stroke-width="1" d="M 69.5 50 L 69.5 60" opacity="1"></path><path fill="none" class="highcharts-tick" stroke="#ccd6eb" stroke-width="1" d="M 140.5 50 L 140.5 60" opacity="1"></path><path fill="none" class="highcharts-axis-line" stroke="#ccd6eb" stroke-width="1" data-z-index="7" d="M 0 50.5 L 140 50.5"></path></g><g class="highcharts-axis highcharts-yaxis" data-z-index="2"><path fill="none" class="highcharts-axis-line" data-z-index="7" d="M 0 0 L 0 50"></path></g><g class="highcharts-series-group" data-z-index="3"><g class="highcharts-series highcharts-series-0 highcharts-area-series" data-z-index="0.1" opacity="1" transform="translate(0,0) scale(1 1)" clip-path="url(#highcharts-pp2x12k-2495-)"><path fill="rgba( 210, 79, 69, 0.1)" d="M 0 10.0703125 L 1.4 7.0078125 L 2.8 8.0390625 L 4.2 11.484375 L 5.6 11.5234375 L 7 7.5234375 L 8.4 6.15625 L 9.8 7.3359375 L 11.2 5.0546875 L 12.6 4.8984375 L 14 4.640625 L 15.4 6.40625 L 16.8 5.5625 L 18.2 5.1953125 L 19.6 3.8046875 L 21 2.28125 L 22.4 2.65625 L 23.8 2.9765625 L 25.2 5.5703125 L 26.6 8.59375 L 28 13.2265625 L 29.4 15.078125 L 30.8 18.6484375 L 32.2 24.2265625 L 33.6 21.234375 L 33.6 13 L 32.2 13 L 30.8 13 L 29.4 13 L 28 13 L 26.6 13 L 25.2 13 L 23.8 13 L 22.4 13 L 21 13 L 19.6 13 L 18.2 13 L 16.8 13 L 15.4 13 L 14 13 L 12.6 13 L 11.2 13 L 9.8 13 L 8.4 13 L 7 13 L 5.6 13 L 4.2 13 L 2.8 13 L 1.4 13 L 0 13" class="highcharts-area" data-z-index="0" visibility="hidden"></path><path fill="rgba( 18, 97, 196, 0.1)" d="M 0 10.0703125 L 1.4 7.0078125 L 2.8 8.0390625 L 4.2 11.484375 L 5.6 11.5234375 L 7 7.5234375 L 8.4 6.15625 L 9.8 7.3359375 L 11.2 5.0546875 L 12.6 4.8984375 L 14 4.640625 L 15.4 6.40625 L 16.8 5.5625 L 18.2 5.1953125 L 19.6 3.8046875 L 21 2.28125 L 22.4 2.65625 L 23.8 2.9765625 L 25.2 5.5703125 L 26.6 8.59375 L 28 13.2265625 L 29.4 15.078125 L 30.8 18.6484375 L 32.2 24.2265625 L 33.6 21.234375 L 33.6 13 L 32.2 13 L 30.8 13 L 29.4 13 L 28 13 L 26.6 13 L 25.2 13 L 23.8 13 L 22.4 13 L 21 13 L 19.6 13 L 18.2 13 L 16.8 13 L 15.4 13 L 14 13 L 12.6 13 L 11.2 13 L 9.8 13 L 8.4 13 L 7 13 L 5.6 13 L 4.2 13 L 2.8 13 L 1.4 13 L 0 13" class="highcharts-area highcharts-zone-area-0 highcharts-negative" data-z-index="0" clip-path="url(#highcharts-pp2x12k-2659-)"></path><path fill="rgba( 210, 79, 69, 0.1)" d="M 0 10.0703125 L 1.4 7.0078125 L 2.8 8.0390625 L 4.2 11.484375 L 5.6 11.5234375 L 7 7.5234375 L 8.4 6.15625 L 9.8 7.3359375 L 11.2 5.0546875 L 12.6 4.8984375 L 14 4.640625 L 15.4 6.40625 L 16.8 5.5625 L 18.2 5.1953125 L 19.6 3.8046875 L 21 2.28125 L 22.4 2.65625 L 23.8 2.9765625 L 25.2 5.5703125 L 26.6 8.59375 L 28 13.2265625 L 29.4 15.078125 L 30.8 18.6484375 L 32.2 24.2265625 L 33.6 21.234375 L 33.6 13 L 32.2 13 L 30.8 13 L 29.4 13 L 28 13 L 26.6 13 L 25.2 13 L 23.8 13 L 22.4 13 L 21 13 L 19.6 13 L 18.2 13 L 16.8 13 L 15.4 13 L 14 13 L 12.6 13 L 11.2 13 L 9.8 13 L 8.4 13 L 7 13 L 5.6 13 L 4.2 13 L 2.8 13 L 1.4 13 L 0 13" class="highcharts-area highcharts-zone-area-1 undefined" data-z-index="0" clip-path="url(#highcharts-pp2x12k-2660-)"></path><path fill="none" d="M 0 10.0703125 L 1.4 7.0078125 L 2.8 8.0390625 L 4.2 11.484375 L 5.6 11.5234375 L 7 7.5234375 L 8.4 6.15625 L 9.8 7.3359375 L 11.2 5.0546875 L 12.6 4.8984375 L 14 4.640625 L 15.4 6.40625 L 16.8 5.5625 L 18.2 5.1953125 L 19.6 3.8046875 L 21 2.28125 L 22.4 2.65625 L 23.8 2.9765625 L 25.2 5.5703125 L 26.6 8.59375 L 28 13.2265625 L 29.4 15.078125 L 30.8 18.6484375 L 32.2 24.2265625 L 33.6 21.234375" class="highcharts-graph" data-z-index="1" stroke="#D24F45" stroke-width="1" visibility="hidden"></path><path fill="none" d="M 0 10.0703125 L 1.4 7.0078125 L 2.8 8.0390625 L 4.2 11.484375 L 5.6 11.5234375 L 7 7.5234375 L 8.4 6.15625 L 9.8 7.3359375 L 11.2 5.0546875 L 12.6 4.8984375 L 14 4.640625 L 15.4 6.40625 L 16.8 5.5625 L 18.2 5.1953125 L 19.6 3.8046875 L 21 2.28125 L 22.4 2.65625 L 23.8 2.9765625 L 25.2 5.5703125 L 26.6 8.59375 L 28 13.2265625 L 29.4 15.078125 L 30.8 18.6484375 L 32.2 24.2265625 L 33.6 21.234375" class="highcharts-graph highcharts-zone-graph-0 highcharts-negative" data-z-index="1" stroke="#0966C6" stroke-width="1" clip-path="url(#highcharts-pp2x12k-2659-)"></path><path fill="none" d="M 0 10.0703125 L 1.4 7.0078125 L 2.8 8.0390625 L 4.2 11.484375 L 5.6 11.5234375 L 7 7.5234375 L 8.4 6.15625 L 9.8 7.3359375 L 11.2 5.0546875 L 12.6 4.8984375 L 14 4.640625 L 15.4 6.40625 L 16.8 5.5625 L 18.2 5.1953125 L 19.6 3.8046875 L 21 2.28125 L 22.4 2.65625 L 23.8 2.9765625 L 25.2 5.5703125 L 26.6 8.59375 L 28 13.2265625 L 29.4 15.078125 L 30.8 18.6484375 L 32.2 24.2265625 L 33.6 21.234375" class="highcharts-graph highcharts-zone-graph-1" data-z-index="1" stroke="#D24F45" stroke-width="1" clip-path="url(#highcharts-pp2x12k-2660-)"></path><path fill="none" d="M 0 10.0703125 L 1.4 7.0078125 L 2.8 8.0390625 L 4.2 11.484375 L 5.6 11.5234375 L 7 7.5234375 L 8.4 6.15625 L 9.8 7.3359375 L 11.2 5.0546875 L 12.6 4.8984375 L 14 4.640625 L 15.4 6.40625 L 16.8 5.5625 L 18.2 5.1953125 L 19.6 3.8046875 L 21 2.28125 L 22.4 2.65625 L 23.8 2.9765625 L 25.2 5.5703125 L 26.6 8.59375 L 28 13.2265625 L 29.4 15.078125 L 30.8 18.6484375 L 32.2 24.2265625 L 33.6 21.234375" visibility="visible" data-z-index="2" class="highcharts-tracker-line" stroke-linecap="round" stroke-linejoin="round" stroke="rgba(192,192,192,0.0001)" stroke-width="21"></path></g><g class="highcharts-markers highcharts-series-0 highcharts-area-series highcharts-tracker" data-z-index="0.1" opacity="1" transform="translate(0,0) scale(1 1)" clip-path="none"></g></g><text x="70" text-anchor="middle" class="highcharts-title" data-z-index="4" style="color:#333333;font-size:18px;display:none;fill:#333333;" y="24"></text><text x="70" text-anchor="middle" class="highcharts-subtitle" data-z-index="4" style="color:#666666;fill:#666666;" y="24"></text><text x="10" text-anchor="start" class="highcharts-caption" data-z-index="4" style="color:#666666;fill:#666666;" y="47"></text><g class="highcharts-axis-labels highcharts-xaxis-labels" data-z-index="7"></g><g class="highcharts-axis-labels highcharts-yaxis-labels" data-z-index="7"></g></svg>