<svg version="1.1" class="highcharts-root" style="font-family:&quot;Lucida Grande&quot;, &quot;Lucida Sans Unicode&quot;, Arial, Helvetica, sans-serif;font-size:12px;" xmlns="http://www.w3.org/2000/svg" width="140" height="50" viewBox="0 0 140 50"><desc>Created with Highcharts 8.1.2</desc><defs><clipPath id="highcharts-myxxp5y-689-"><rect x="0" y="0" width="140" height="50" fill="none"></rect></clipPath><clipPath id="highcharts-myxxp5y-724-"><rect x="-99" y="0" width="239" height="50" fill="none"></rect></clipPath><clipPath id="highcharts-myxxp5y-725-"><rect x="0" y="0" width="140" height="50" fill="none"></rect></clipPath><clipPath id="highcharts-myxxp5y-726-"><rect x="0" y="0" width="140" height="50" fill="none"></rect></clipPath><clipPath id="highcharts-myxxp5y-727-"><rect x="0" y="0" width="140" height="0" fill="none"></rect></clipPath><clipPath id="highcharts-myxxp5y-728-"><rect x="0" y="0" width="140" height="50" fill="none"></rect></clipPath><clipPath id="highcharts-myxxp5y-729-"><rect x="0" y="0" width="140" height="0" fill="none"></rect></clipPath><clipPath id="highcharts-myxxp5y-731-"><rect x="0" y="0" width="140" height="50" fill="none"></rect></clipPath><clipPath id="highcharts-myxxp5y-732-"><rect x="0" y="0" width="140" height="0" fill="none"></rect></clipPath><clipPath id="highcharts-myxxp5y-734-"><rect x="0" y="0" width="140" height="50" fill="none"></rect></clipPath><clipPath id="highcharts-myxxp5y-735-"><rect x="0" y="0" width="140" height="0" fill="none"></rect></clipPath><clipPath id="highcharts-myxxp5y-737-"><rect x="0" y="0" width="140" height="50" fill="none"></rect></clipPath><clipPath id="highcharts-myxxp5y-738-"><rect x="0" y="0" width="140" height="0" fill="none"></rect></clipPath><clipPath id="highcharts-myxxp5y-740-"><rect x="0" y="0" width="140" height="50" fill="none"></rect></clipPath><clipPath id="highcharts-myxxp5y-741-"><rect x="0" y="0" width="140" height="0" fill="none"></rect></clipPath><clipPath id="highcharts-myxxp5y-743-"><rect x="0" y="0" width="140" height="50" fill="none"></rect></clipPath><clipPath id="highcharts-myxxp5y-744-"><rect x="0" y="0" width="140" height="0" fill="none"></rect></clipPath><clipPath id="highcharts-myxxp5y-746-"><rect x="0" y="0" width="140" height="50" fill="none"></rect></clipPath><clipPath id="highcharts-myxxp5y-747-"><rect x="0" y="0" width="140" height="0" fill="none"></rect></clipPath><clipPath id="highcharts-myxxp5y-749-"><rect x="0" y="0" width="140" height="50" fill="none"></rect></clipPath><clipPath id="highcharts-myxxp5y-750-"><rect x="0" y="0" width="140" height="0" fill="none"></rect></clipPath><clipPath id="highcharts-myxxp5y-752-"><rect x="0" y="0" width="140" height="50" fill="none"></rect></clipPath><clipPath id="highcharts-myxxp5y-753-"><rect x="0" y="0" width="140" height="0" fill="none"></rect></clipPath><clipPath id="highcharts-myxxp5y-755-"><rect x="0" y="0" width="140" height="50" fill="none"></rect></clipPath><clipPath id="highcharts-myxxp5y-756-"><rect x="0" y="0" width="140" height="0" fill="none"></rect></clipPath><clipPath id="highcharts-myxxp5y-758-"><rect x="0" y="0" width="140" height="50" fill="none"></rect></clipPath><clipPath id="highcharts-myxxp5y-759-"><rect x="0" y="0" width="140" height="0" fill="none"></rect></clipPath><clipPath id="highcharts-myxxp5y-761-"><rect x="0" y="0" width="140" height="50" fill="none"></rect></clipPath><clipPath id="highcharts-myxxp5y-762-"><rect x="0" y="0" width="140" height="0" fill="none"></rect></clipPath><clipPath id="highcharts-myxxp5y-799-"><rect x="0" y="0" width="140" height="50" fill="none"></rect></clipPath><clipPath id="highcharts-myxxp5y-800-"><rect x="0" y="0" width="140" height="0" fill="none"></rect></clipPath><clipPath id="highcharts-myxxp5y-802-"><rect x="0" y="0" width="140" height="50" fill="none"></rect></clipPath><clipPath id="highcharts-myxxp5y-803-"><rect x="0" y="0" width="140" height="0" fill="none"></rect></clipPath><clipPath id="highcharts-myxxp5y-805-"><rect x="0" y="0" width="140" height="50" fill="none"></rect></clipPath><clipPath id="highcharts-myxxp5y-806-"><rect x="0" y="0" width="140" height="0" fill="none"></rect></clipPath><clipPath id="highcharts-myxxp5y-808-"><rect x="0" y="0" width="140" height="50" fill="none"></rect></clipPath><clipPath id="highcharts-myxxp5y-809-"><rect x="0" y="0" width="140" height="0" fill="none"></rect></clipPath><clipPath id="highcharts-myxxp5y-811-"><rect x="0" y="0" width="140" height="50" fill="none"></rect></clipPath><clipPath id="highcharts-myxxp5y-812-"><rect x="0" y="0" width="140" height="0" fill="none"></rect></clipPath><clipPath id="highcharts-myxxp5y-814-"><rect x="0" y="0" width="140" height="50" fill="none"></rect></clipPath><clipPath id="highcharts-myxxp5y-815-"><rect x="0" y="0" width="140" height="0" fill="none"></rect></clipPath><clipPath id="highcharts-myxxp5y-817-"><rect x="0" y="0" width="140" height="50" fill="none"></rect></clipPath><clipPath id="highcharts-myxxp5y-818-"><rect x="0" y="0" width="140" height="0" fill="none"></rect></clipPath><clipPath id="highcharts-myxxp5y-820-"><rect x="0" y="0" width="140" height="50" fill="none"></rect></clipPath><clipPath id="highcharts-myxxp5y-821-"><rect x="0" y="0" width="140" height="0" fill="none"></rect></clipPath><clipPath id="highcharts-myxxp5y-823-"><rect x="0" y="0" width="140" height="50" fill="none"></rect></clipPath><clipPath id="highcharts-myxxp5y-824-"><rect x="0" y="0" width="140" height="0" fill="none"></rect></clipPath><clipPath id="highcharts-myxxp5y-826-"><rect x="0" y="0" width="140" height="50" fill="none"></rect></clipPath><clipPath id="highcharts-myxxp5y-827-"><rect x="0" y="0" width="140" height="0" fill="none"></rect></clipPath><clipPath id="highcharts-myxxp5y-829-"><rect x="0" y="0" width="140" height="50" fill="none"></rect></clipPath><clipPath id="highcharts-myxxp5y-830-"><rect x="0" y="0" width="140" height="0" fill="none"></rect></clipPath><clipPath id="highcharts-myxxp5y-832-"><rect x="0" y="0" width="140" height="50" fill="none"></rect></clipPath><clipPath id="highcharts-myxxp5y-833-"><rect x="0" y="0" width="140" height="0" fill="none"></rect></clipPath><clipPath id="highcharts-myxxp5y-835-"><rect x="0" y="0" width="140" height="50" fill="none"></rect></clipPath><clipPath id="highcharts-myxxp5y-836-"><rect x="0" y="0" width="140" height="0" fill="none"></rect></clipPath><clipPath id="highcharts-myxxp5y-838-"><rect x="0" y="0" width="140" height="50" fill="none"></rect></clipPath><clipPath id="highcharts-myxxp5y-839-"><rect x="0" y="0" width="140" height="0" fill="none"></rect></clipPath><clipPath id="highcharts-myxxp5y-841-"><rect x="0" y="0" width="140" height="50" fill="none"></rect></clipPath><clipPath id="highcharts-myxxp5y-842-"><rect x="0" y="0" width="140" height="0" fill="none"></rect></clipPath><clipPath id="highcharts-myxxp5y-880-"><rect x="0" y="0" width="140" height="50" fill="none"></rect></clipPath><clipPath id="highcharts-myxxp5y-881-"><rect x="0" y="0" width="140" height="0" fill="none"></rect></clipPath><clipPath id="highcharts-myxxp5y-883-"><rect x="0" y="0" width="140" height="50" fill="none"></rect></clipPath><clipPath id="highcharts-myxxp5y-884-"><rect x="0" y="0" width="140" height="0" fill="none"></rect></clipPath><clipPath id="highcharts-myxxp5y-886-"><rect x="0" y="0" width="140" height="50" fill="none"></rect></clipPath><clipPath id="highcharts-myxxp5y-887-"><rect x="0" y="0" width="140" height="0" fill="none"></rect></clipPath><clipPath id="highcharts-myxxp5y-889-"><rect x="0" y="0" width="140" height="50" fill="none"></rect></clipPath><clipPath id="highcharts-myxxp5y-890-"><rect x="0" y="0" width="140" height="0" fill="none"></rect></clipPath><clipPath id="highcharts-myxxp5y-892-"><rect x="0" y="0" width="140" height="50" fill="none"></rect></clipPath><clipPath id="highcharts-myxxp5y-893-"><rect x="0" y="0" width="140" height="0" fill="none"></rect></clipPath><clipPath id="highcharts-myxxp5y-895-"><rect x="0" y="0" width="140" height="50" fill="none"></rect></clipPath><clipPath id="highcharts-myxxp5y-896-"><rect x="0" y="0" width="140" height="0" fill="none"></rect></clipPath><clipPath id="highcharts-myxxp5y-898-"><rect x="0" y="0" width="140" height="50" fill="none"></rect></clipPath><clipPath id="highcharts-myxxp5y-899-"><rect x="0" y="0" width="140" height="0" fill="none"></rect></clipPath><clipPath id="highcharts-myxxp5y-901-"><rect x="0" y="0" width="140" height="50" fill="none"></rect></clipPath><clipPath id="highcharts-myxxp5y-902-"><rect x="0" y="0" width="140" height="0" fill="none"></rect></clipPath><clipPath id="highcharts-myxxp5y-904-"><rect x="0" y="0" width="140" height="50" fill="none"></rect></clipPath><clipPath id="highcharts-myxxp5y-905-"><rect x="0" y="0" width="140" height="0" fill="none"></rect></clipPath><clipPath id="highcharts-myxxp5y-907-"><rect x="0" y="0" width="140" height="50" fill="none"></rect></clipPath><clipPath id="highcharts-myxxp5y-908-"><rect x="0" y="0" width="140" height="0" fill="none"></rect></clipPath><clipPath id="highcharts-myxxp5y-910-"><rect x="0" y="0" width="140" height="50" fill="none"></rect></clipPath><clipPath id="highcharts-myxxp5y-911-"><rect x="0" y="0" width="140" height="0" fill="none"></rect></clipPath><clipPath id="highcharts-myxxp5y-913-"><rect x="0" y="0" width="140" height="50" fill="none"></rect></clipPath><clipPath id="highcharts-myxxp5y-914-"><rect x="0" y="0" width="140" height="0" fill="none"></rect></clipPath><clipPath id="highcharts-myxxp5y-916-"><rect x="0" y="0" width="140" height="50" fill="none"></rect></clipPath><clipPath id="highcharts-myxxp5y-917-"><rect x="0" y="0" width="140" height="0" fill="none"></rect></clipPath><clipPath id="highcharts-myxxp5y-919-"><rect x="0" y="0" width="140" height="50" fill="none"></rect></clipPath><clipPath id="highcharts-myxxp5y-920-"><rect x="0" y="0" width="140" height="0" fill="none"></rect></clipPath><clipPath id="highcharts-myxxp5y-922-"><rect x="0" y="0" width="140" height="50" fill="none"></rect></clipPath><clipPath id="highcharts-myxxp5y-923-"><rect x="0" y="0" width="140" height="0" fill="none"></rect></clipPath><clipPath id="highcharts-myxxp5y-962-"><rect x="0" y="0" width="140" height="50" fill="none"></rect></clipPath><clipPath id="highcharts-myxxp5y-963-"><rect x="0" y="0" width="140" height="0" fill="none"></rect></clipPath><clipPath id="highcharts-myxxp5y-965-"><rect x="0" y="0" width="140" height="50" fill="none"></rect></clipPath><clipPath id="highcharts-myxxp5y-966-"><rect x="0" y="0" width="140" height="0" fill="none"></rect></clipPath><clipPath id="highcharts-myxxp5y-968-"><rect x="0" y="0" width="140" height="50" fill="none"></rect></clipPath><clipPath id="highcharts-myxxp5y-969-"><rect x="0" y="0" width="140" height="0" fill="none"></rect></clipPath><clipPath id="highcharts-myxxp5y-971-"><rect x="0" y="0" width="140" height="50" fill="none"></rect></clipPath><clipPath id="highcharts-myxxp5y-972-"><rect x="0" y="0" width="140" height="0" fill="none"></rect></clipPath><clipPath id="highcharts-myxxp5y-974-"><rect x="0" y="0" width="140" height="50" fill="none"></rect></clipPath><clipPath id="highcharts-myxxp5y-975-"><rect x="0" y="0" width="140" height="0" fill="none"></rect></clipPath><clipPath id="highcharts-myxxp5y-977-"><rect x="0" y="0" width="140" height="50" fill="none"></rect></clipPath><clipPath id="highcharts-myxxp5y-978-"><rect x="0" y="0" width="140" height="0" fill="none"></rect></clipPath><clipPath id="highcharts-myxxp5y-980-"><rect x="0" y="0" width="140" height="50" fill="none"></rect></clipPath><clipPath id="highcharts-myxxp5y-981-"><rect x="0" y="0" width="140" height="0" fill="none"></rect></clipPath><clipPath id="highcharts-myxxp5y-983-"><rect x="0" y="0" width="140" height="50" fill="none"></rect></clipPath><clipPath id="highcharts-myxxp5y-984-"><rect x="0" y="0" width="140" height="0" fill="none"></rect></clipPath><clipPath id="highcharts-myxxp5y-986-"><rect x="0" y="0" width="140" height="50" fill="none"></rect></clipPath><clipPath id="highcharts-myxxp5y-987-"><rect x="0" y="0" width="140" height="0" fill="none"></rect></clipPath><clipPath id="highcharts-myxxp5y-989-"><rect x="0" y="0" width="140" height="50" fill="none"></rect></clipPath><clipPath id="highcharts-myxxp5y-990-"><rect x="0" y="0" width="140" height="0" fill="none"></rect></clipPath><clipPath id="highcharts-myxxp5y-992-"><rect x="0" y="0" width="140" height="50" fill="none"></rect></clipPath><clipPath id="highcharts-myxxp5y-993-"><rect x="0" y="0" width="140" height="0" fill="none"></rect></clipPath><clipPath id="highcharts-myxxp5y-995-"><rect x="0" y="0" width="140" height="50" fill="none"></rect></clipPath><clipPath id="highcharts-myxxp5y-996-"><rect x="0" y="0" width="140" height="0" fill="none"></rect></clipPath><clipPath id="highcharts-myxxp5y-998-"><rect x="0" y="0" width="140" height="50" fill="none"></rect></clipPath><clipPath id="highcharts-myxxp5y-999-"><rect x="0" y="0" width="140" height="0" fill="none"></rect></clipPath><clipPath id="highcharts-myxxp5y-1001-"><rect x="0" y="0" width="140" height="50" fill="none"></rect></clipPath><clipPath id="highcharts-myxxp5y-1002-"><rect x="0" y="0" width="140" height="0" fill="none"></rect></clipPath><clipPath id="highcharts-myxxp5y-1004-"><rect x="0" y="0" width="140" height="50" fill="none"></rect></clipPath><clipPath id="highcharts-myxxp5y-1005-"><rect x="0" y="0" width="140" height="0" fill="none"></rect></clipPath><clipPath id="highcharts-myxxp5y-1045-"><rect x="0" y="0" width="140" height="50" fill="none"></rect></clipPath><clipPath id="highcharts-myxxp5y-1046-"><rect x="0" y="0" width="140" height="0" fill="none"></rect></clipPath><clipPath id="highcharts-myxxp5y-1048-"><rect x="0" y="0" width="140" height="50" fill="none"></rect></clipPath><clipPath id="highcharts-myxxp5y-1049-"><rect x="0" y="0" width="140" height="0" fill="none"></rect></clipPath><clipPath id="highcharts-myxxp5y-1051-"><rect x="0" y="0" width="140" height="50" fill="none"></rect></clipPath><clipPath id="highcharts-myxxp5y-1052-"><rect x="0" y="0" width="140" height="0" fill="none"></rect></clipPath><clipPath id="highcharts-myxxp5y-1054-"><rect x="0" y="0" width="140" height="50" fill="none"></rect></clipPath><clipPath id="highcharts-myxxp5y-1055-"><rect x="0" y="0" width="140" height="0" fill="none"></rect></clipPath><clipPath id="highcharts-myxxp5y-1057-"><rect x="0" y="0" width="140" height="50" fill="none"></rect></clipPath><clipPath id="highcharts-myxxp5y-1058-"><rect x="0" y="0" width="140" height="0" fill="none"></rect></clipPath><clipPath id="highcharts-myxxp5y-1060-"><rect x="0" y="0" width="140" height="50" fill="none"></rect></clipPath><clipPath id="highcharts-myxxp5y-1061-"><rect x="0" y="0" width="140" height="0" fill="none"></rect></clipPath><clipPath id="highcharts-myxxp5y-1063-"><rect x="0" y="0" width="140" height="50" fill="none"></rect></clipPath><clipPath id="highcharts-myxxp5y-1064-"><rect x="0" y="0" width="140" height="0" fill="none"></rect></clipPath><clipPath id="highcharts-myxxp5y-1066-"><rect x="0" y="0" width="140" height="50" fill="none"></rect></clipPath><clipPath id="highcharts-myxxp5y-1067-"><rect x="0" y="0" width="140" height="0" fill="none"></rect></clipPath><clipPath id="highcharts-myxxp5y-1069-"><rect x="0" y="0" width="140" height="50" fill="none"></rect></clipPath><clipPath id="highcharts-myxxp5y-1070-"><rect x="0" y="0" width="140" height="0" fill="none"></rect></clipPath><clipPath id="highcharts-myxxp5y-1072-"><rect x="0" y="0" width="140" height="50" fill="none"></rect></clipPath><clipPath id="highcharts-myxxp5y-1073-"><rect x="0" y="0" width="140" height="0" fill="none"></rect></clipPath><clipPath id="highcharts-myxxp5y-1075-"><rect x="0" y="0" width="140" height="50" fill="none"></rect></clipPath><clipPath id="highcharts-myxxp5y-1076-"><rect x="0" y="0" width="140" height="0" fill="none"></rect></clipPath><clipPath id="highcharts-myxxp5y-1078-"><rect x="0" y="0" width="140" height="50" fill="none"></rect></clipPath><clipPath id="highcharts-myxxp5y-1079-"><rect x="0" y="0" width="140" height="0" fill="none"></rect></clipPath><clipPath id="highcharts-myxxp5y-1081-"><rect x="0" y="0" width="140" height="50" fill="none"></rect></clipPath><clipPath id="highcharts-myxxp5y-1082-"><rect x="0" y="0" width="140" height="0" fill="none"></rect></clipPath><clipPath id="highcharts-myxxp5y-1084-"><rect x="0" y="0" width="140" height="50" fill="none"></rect></clipPath><clipPath id="highcharts-myxxp5y-1085-"><rect x="0" y="0" width="140" height="0" fill="none"></rect></clipPath><clipPath id="highcharts-myxxp5y-1087-"><rect x="0" y="0" width="140" height="50" fill="none"></rect></clipPath><clipPath id="highcharts-myxxp5y-1088-"><rect x="0" y="0" width="140" height="0" fill="none"></rect></clipPath><clipPath id="highcharts-myxxp5y-1129-"><rect x="0" y="0" width="140" height="50" fill="none"></rect></clipPath><clipPath id="highcharts-myxxp5y-1130-"><rect x="0" y="0" width="140" height="0" fill="none"></rect></clipPath><clipPath id="highcharts-myxxp5y-1132-"><rect x="0" y="0" width="140" height="50" fill="none"></rect></clipPath><clipPath id="highcharts-myxxp5y-1133-"><rect x="0" y="0" width="140" height="0" fill="none"></rect></clipPath><clipPath id="highcharts-myxxp5y-1135-"><rect x="0" y="0" width="140" height="50" fill="none"></rect></clipPath><clipPath id="highcharts-myxxp5y-1136-"><rect x="0" y="0" width="140" height="0" fill="none"></rect></clipPath><clipPath id="highcharts-myxxp5y-1138-"><rect x="0" y="0" width="140" height="50" fill="none"></rect></clipPath><clipPath id="highcharts-myxxp5y-1139-"><rect x="0" y="0" width="140" height="0" fill="none"></rect></clipPath><clipPath id="highcharts-myxxp5y-1141-"><rect x="0" y="0" width="140" height="50" fill="none"></rect></clipPath><clipPath id="highcharts-myxxp5y-1142-"><rect x="0" y="0" width="140" height="0" fill="none"></rect></clipPath><clipPath id="highcharts-myxxp5y-1144-"><rect x="0" y="0" width="140" height="50" fill="none"></rect></clipPath><clipPath id="highcharts-myxxp5y-1145-"><rect x="0" y="0" width="140" height="0" fill="none"></rect></clipPath><clipPath id="highcharts-myxxp5y-1147-"><rect x="0" y="0" width="140" height="50" fill="none"></rect></clipPath><clipPath id="highcharts-myxxp5y-1148-"><rect x="0" y="0" width="140" height="0" fill="none"></rect></clipPath><clipPath id="highcharts-myxxp5y-1150-"><rect x="0" y="0" width="140" height="50" fill="none"></rect></clipPath><clipPath id="highcharts-myxxp5y-1151-"><rect x="0" y="0" width="140" height="0" fill="none"></rect></clipPath><clipPath id="highcharts-myxxp5y-1153-"><rect x="0" y="0" width="140" height="50" fill="none"></rect></clipPath><clipPath id="highcharts-myxxp5y-1154-"><rect x="0" y="0" width="140" height="0" fill="none"></rect></clipPath><clipPath id="highcharts-myxxp5y-1156-"><rect x="0" y="0" width="140" height="50" fill="none"></rect></clipPath><clipPath id="highcharts-myxxp5y-1157-"><rect x="0" y="0" width="140" height="0" fill="none"></rect></clipPath><clipPath id="highcharts-myxxp5y-1159-"><rect x="0" y="0" width="140" height="50" fill="none"></rect></clipPath><clipPath id="highcharts-myxxp5y-1160-"><rect x="0" y="0" width="140" height="0" fill="none"></rect></clipPath><clipPath id="highcharts-myxxp5y-1162-"><rect x="0" y="0" width="140" height="50" fill="none"></rect></clipPath><clipPath id="highcharts-myxxp5y-1163-"><rect x="0" y="0" width="140" height="0" fill="none"></rect></clipPath><clipPath id="highcharts-myxxp5y-1165-"><rect x="0" y="0" width="140" height="50" fill="none"></rect></clipPath><clipPath id="highcharts-myxxp5y-1166-"><rect x="0" y="0" width="140" height="0" fill="none"></rect></clipPath><clipPath id="highcharts-myxxp5y-1168-"><rect x="0" y="0" width="140" height="50" fill="none"></rect></clipPath><clipPath id="highcharts-myxxp5y-1169-"><rect x="0" y="0" width="140" height="0" fill="none"></rect></clipPath><clipPath id="highcharts-myxxp5y-1171-"><rect x="0" y="0" width="140" height="50" fill="none"></rect></clipPath><clipPath id="highcharts-myxxp5y-1172-"><rect x="0" y="0" width="140" height="0" fill="none"></rect></clipPath><clipPath id="highcharts-myxxp5y-1214-"><rect x="0" y="0" width="140" height="50" fill="none"></rect></clipPath><clipPath id="highcharts-myxxp5y-1215-"><rect x="0" y="0" width="140" height="0" fill="none"></rect></clipPath><clipPath id="highcharts-myxxp5y-1217-"><rect x="0" y="0" width="140" height="50" fill="none"></rect></clipPath><clipPath id="highcharts-myxxp5y-1218-"><rect x="0" y="0" width="140" height="0" fill="none"></rect></clipPath><clipPath id="highcharts-myxxp5y-1220-"><rect x="0" y="0" width="140" height="50" fill="none"></rect></clipPath><clipPath id="highcharts-myxxp5y-1221-"><rect x="0" y="0" width="140" height="0" fill="none"></rect></clipPath><clipPath id="highcharts-myxxp5y-1223-"><rect x="0" y="0" width="140" height="50" fill="none"></rect></clipPath><clipPath id="highcharts-myxxp5y-1224-"><rect x="0" y="0" width="140" height="0" fill="none"></rect></clipPath><clipPath id="highcharts-myxxp5y-1226-"><rect x="0" y="0" width="140" height="50" fill="none"></rect></clipPath><clipPath id="highcharts-myxxp5y-1227-"><rect x="0" y="0" width="140" height="0" fill="none"></rect></clipPath><clipPath id="highcharts-myxxp5y-1229-"><rect x="0" y="0" width="140" height="50" fill="none"></rect></clipPath><clipPath id="highcharts-myxxp5y-1230-"><rect x="0" y="0" width="140" height="0" fill="none"></rect></clipPath><clipPath id="highcharts-myxxp5y-1232-"><rect x="0" y="0" width="140" height="50" fill="none"></rect></clipPath><clipPath id="highcharts-myxxp5y-1233-"><rect x="0" y="0" width="140" height="0" fill="none"></rect></clipPath></defs><rect fill="transparent" class="highcharts-background" x="0" y="0" width="140" height="50" rx="0" ry="0"></rect><rect fill="none" class="highcharts-plot-background" x="0" y="0" width="140" height="50"></rect><rect fill="none" class="highcharts-plot-border" data-z-index="1" x="0" y="0" width="140" height="50"></rect><g class="highcharts-grid highcharts-xaxis-grid" data-z-index="1"><path fill="none" data-z-index="1" class="highcharts-grid-line" d="M -0.5 0 L -0.5 50" opacity="1"></path><path fill="none" data-z-index="1" class="highcharts-grid-line" d="M 69.5 0 L 69.5 50" opacity="1"></path><path fill="none" data-z-index="1" class="highcharts-grid-line" d="M 139.5 0 L 139.5 50" opacity="1"></path></g><g class="highcharts-grid highcharts-yaxis-grid" data-z-index="1"><path fill="none" stroke="#e6e6e6" stroke-width="1" data-z-index="1" class="highcharts-grid-line" d="M 0 50.5 L 140 50.5" opacity="1"></path><path fill="none" stroke="#e6e6e6" stroke-width="1" data-z-index="1" class="highcharts-grid-line" d="M 0 -0.5 L 140 -0.5" opacity="1"></path></g><g class="highcharts-axis highcharts-xaxis" data-z-index="2"><path fill="none" class="highcharts-tick" stroke="#ccd6eb" stroke-width="1" d="M -0.5 50 L -0.5 60" opacity="1"></path><path fill="none" class="highcharts-tick" stroke="#ccd6eb" stroke-width="1" d="M 69.5 50 L 69.5 60" opacity="1"></path><path fill="none" class="highcharts-tick" stroke="#ccd6eb" stroke-width="1" d="M 140.5 50 L 140.5 60" opacity="1"></path><path fill="none" class="highcharts-axis-line" stroke="#ccd6eb" stroke-width="1" data-z-index="7" d="M 0 50.5 L 140 50.5"></path></g><g class="highcharts-axis highcharts-yaxis" data-z-index="2"><path fill="none" class="highcharts-axis-line" data-z-index="7" d="M 0 0 L 0 50"></path></g><g class="highcharts-series-group" data-z-index="3"><g class="highcharts-series highcharts-series-0 highcharts-area-series" data-z-index="0.1" opacity="1" transform="translate(0,0) scale(1 1)" clip-path="url(#highcharts-myxxp5y-689-)"><path fill="rgba( 210, 79, 69, 0.1)" d="M 0 5.737499999999997 L 1.4 7.612499999999997 L 2.8 6.975000000000001 L 4.2 5.462499999999999 L 5.6 5.625 L 7 5.862499999999997 L 8.4 7.625 L 9.8 7.237499999999997 L 11.2 10.324999999999996 L 12.6 13.162500000000001 L 14 13.712499999999999 L 15.4 14 L 16.8 12.8125 L 18.2 12.912500000000001 L 19.6 12.774999999999999 L 21 18.5625 L 22.4 15.774999999999999 L 23.8 17.8375 L 25.2 10.350000000000001 L 26.6 14.137499999999996 L 28 20.8375 L 29.4 15.024999999999999 L 30.8 12.637499999999996 L 32.2 12.074999999999996 L 33.6 8.649999999999999 L 35 6.5625 L 36.4 10.412500000000001 L 37.8 10.337499999999999 L 39.2 10.787500000000001 L 40.6 14.037500000000001 L 42 15.774999999999999 L 43.4 17.15 L 44.8 20.75 L 46.2 14.4375 L 47.6 15.25 L 49 17.475 L 50.4 22.6875 L 51.8 30.0625 L 53.2 37.4125 L 54.6 38.4 L 54.6 0 L 53.2 0 L 51.8 0 L 50.4 0 L 49 0 L 47.6 0 L 46.2 0 L 44.8 0 L 43.4 0 L 42 0 L 40.6 0 L 39.2 0 L 37.8 0 L 36.4 0 L 35 0 L 33.6 0 L 32.2 0 L 30.8 0 L 29.4 0 L 28 0 L 26.6 0 L 25.2 0 L 23.8 0 L 22.4 0 L 21 0 L 19.6 0 L 18.2 0 L 16.8 0 L 15.4 0 L 14 0 L 12.6 0 L 11.2 0 L 9.8 0 L 8.4 0 L 7 0 L 5.6 0 L 4.2 0 L 2.8 0 L 1.4 0 L 0 0" class="highcharts-area" data-z-index="0" visibility="hidden"></path><path fill="rgba( 18, 97, 196, 0.1)" d="M 0 5.737499999999997 L 1.4 7.612499999999997 L 2.8 6.975000000000001 L 4.2 5.462499999999999 L 5.6 5.625 L 7 5.862499999999997 L 8.4 7.625 L 9.8 7.237499999999997 L 11.2 10.324999999999996 L 12.6 13.162500000000001 L 14 13.712499999999999 L 15.4 14 L 16.8 12.8125 L 18.2 12.912500000000001 L 19.6 12.774999999999999 L 21 18.5625 L 22.4 15.774999999999999 L 23.8 17.8375 L 25.2 10.350000000000001 L 26.6 14.137499999999996 L 28 20.8375 L 29.4 15.024999999999999 L 30.8 12.637499999999996 L 32.2 12.074999999999996 L 33.6 8.649999999999999 L 35 6.5625 L 36.4 10.412500000000001 L 37.8 10.337499999999999 L 39.2 10.787500000000001 L 40.6 14.037500000000001 L 42 15.774999999999999 L 43.4 17.15 L 44.8 20.75 L 46.2 14.4375 L 47.6 15.25 L 49 17.475 L 50.4 22.6875 L 51.8 30.0625 L 53.2 37.4125 L 54.6 38.4 L 54.6 0 L 53.2 0 L 51.8 0 L 50.4 0 L 49 0 L 47.6 0 L 46.2 0 L 44.8 0 L 43.4 0 L 42 0 L 40.6 0 L 39.2 0 L 37.8 0 L 36.4 0 L 35 0 L 33.6 0 L 32.2 0 L 30.8 0 L 29.4 0 L 28 0 L 26.6 0 L 25.2 0 L 23.8 0 L 22.4 0 L 21 0 L 19.6 0 L 18.2 0 L 16.8 0 L 15.4 0 L 14 0 L 12.6 0 L 11.2 0 L 9.8 0 L 8.4 0 L 7 0 L 5.6 0 L 4.2 0 L 2.8 0 L 1.4 0 L 0 0" class="highcharts-area highcharts-zone-area-0 highcharts-negative" data-z-index="0" clip-path="url(#highcharts-myxxp5y-1232-)"></path><path fill="rgba( 210, 79, 69, 0.1)" d="M 0 5.737499999999997 L 1.4 7.612499999999997 L 2.8 6.975000000000001 L 4.2 5.462499999999999 L 5.6 5.625 L 7 5.862499999999997 L 8.4 7.625 L 9.8 7.237499999999997 L 11.2 10.324999999999996 L 12.6 13.162500000000001 L 14 13.712499999999999 L 15.4 14 L 16.8 12.8125 L 18.2 12.912500000000001 L 19.6 12.774999999999999 L 21 18.5625 L 22.4 15.774999999999999 L 23.8 17.8375 L 25.2 10.350000000000001 L 26.6 14.137499999999996 L 28 20.8375 L 29.4 15.024999999999999 L 30.8 12.637499999999996 L 32.2 12.074999999999996 L 33.6 8.649999999999999 L 35 6.5625 L 36.4 10.412500000000001 L 37.8 10.337499999999999 L 39.2 10.787500000000001 L 40.6 14.037500000000001 L 42 15.774999999999999 L 43.4 17.15 L 44.8 20.75 L 46.2 14.4375 L 47.6 15.25 L 49 17.475 L 50.4 22.6875 L 51.8 30.0625 L 53.2 37.4125 L 54.6 38.4 L 54.6 0 L 53.2 0 L 51.8 0 L 50.4 0 L 49 0 L 47.6 0 L 46.2 0 L 44.8 0 L 43.4 0 L 42 0 L 40.6 0 L 39.2 0 L 37.8 0 L 36.4 0 L 35 0 L 33.6 0 L 32.2 0 L 30.8 0 L 29.4 0 L 28 0 L 26.6 0 L 25.2 0 L 23.8 0 L 22.4 0 L 21 0 L 19.6 0 L 18.2 0 L 16.8 0 L 15.4 0 L 14 0 L 12.6 0 L 11.2 0 L 9.8 0 L 8.4 0 L 7 0 L 5.6 0 L 4.2 0 L 2.8 0 L 1.4 0 L 0 0" class="highcharts-area highcharts-zone-area-1 undefined" data-z-index="0" clip-path="url(#highcharts-myxxp5y-1233-)"></path><path fill="none" d="M 0 5.737499999999997 L 1.4 7.612499999999997 L 2.8 6.975000000000001 L 4.2 5.462499999999999 L 5.6 5.625 L 7 5.862499999999997 L 8.4 7.625 L 9.8 7.237499999999997 L 11.2 10.324999999999996 L 12.6 13.162500000000001 L 14 13.712499999999999 L 15.4 14 L 16.8 12.8125 L 18.2 12.912500000000001 L 19.6 12.774999999999999 L 21 18.5625 L 22.4 15.774999999999999 L 23.8 17.8375 L 25.2 10.350000000000001 L 26.6 14.137499999999996 L 28 20.8375 L 29.4 15.024999999999999 L 30.8 12.637499999999996 L 32.2 12.074999999999996 L 33.6 8.649999999999999 L 35 6.5625 L 36.4 10.412500000000001 L 37.8 10.337499999999999 L 39.2 10.787500000000001 L 40.6 14.037500000000001 L 42 15.774999999999999 L 43.4 17.15 L 44.8 20.75 L 46.2 14.4375 L 47.6 15.25 L 49 17.475 L 50.4 22.6875 L 51.8 30.0625 L 53.2 37.4125 L 54.6 38.4" class="highcharts-graph" data-z-index="1" stroke="#D24F45" stroke-width="1" visibility="hidden"></path><path fill="none" d="M 0 5.737499999999997 L 1.4 7.612499999999997 L 2.8 6.975000000000001 L 4.2 5.462499999999999 L 5.6 5.625 L 7 5.862499999999997 L 8.4 7.625 L 9.8 7.237499999999997 L 11.2 10.324999999999996 L 12.6 13.162500000000001 L 14 13.712499999999999 L 15.4 14 L 16.8 12.8125 L 18.2 12.912500000000001 L 19.6 12.774999999999999 L 21 18.5625 L 22.4 15.774999999999999 L 23.8 17.8375 L 25.2 10.350000000000001 L 26.6 14.137499999999996 L 28 20.8375 L 29.4 15.024999999999999 L 30.8 12.637499999999996 L 32.2 12.074999999999996 L 33.6 8.649999999999999 L 35 6.5625 L 36.4 10.412500000000001 L 37.8 10.337499999999999 L 39.2 10.787500000000001 L 40.6 14.037500000000001 L 42 15.774999999999999 L 43.4 17.15 L 44.8 20.75 L 46.2 14.4375 L 47.6 15.25 L 49 17.475 L 50.4 22.6875 L 51.8 30.0625 L 53.2 37.4125 L 54.6 38.4" class="highcharts-graph highcharts-zone-graph-0 highcharts-negative" data-z-index="1" stroke="#0966C6" stroke-width="1" clip-path="url(#highcharts-myxxp5y-1232-)"></path><path fill="none" d="M 0 5.737499999999997 L 1.4 7.612499999999997 L 2.8 6.975000000000001 L 4.2 5.462499999999999 L 5.6 5.625 L 7 5.862499999999997 L 8.4 7.625 L 9.8 7.237499999999997 L 11.2 10.324999999999996 L 12.6 13.162500000000001 L 14 13.712499999999999 L 15.4 14 L 16.8 12.8125 L 18.2 12.912500000000001 L 19.6 12.774999999999999 L 21 18.5625 L 22.4 15.774999999999999 L 23.8 17.8375 L 25.2 10.350000000000001 L 26.6 14.137499999999996 L 28 20.8375 L 29.4 15.024999999999999 L 30.8 12.637499999999996 L 32.2 12.074999999999996 L 33.6 8.649999999999999 L 35 6.5625 L 36.4 10.412500000000001 L 37.8 10.337499999999999 L 39.2 10.787500000000001 L 40.6 14.037500000000001 L 42 15.774999999999999 L 43.4 17.15 L 44.8 20.75 L 46.2 14.4375 L 47.6 15.25 L 49 17.475 L 50.4 22.6875 L 51.8 30.0625 L 53.2 37.4125 L 54.6 38.4" class="highcharts-graph highcharts-zone-graph-1" data-z-index="1" stroke="#D24F45" stroke-width="1" clip-path="url(#highcharts-myxxp5y-1233-)"></path><path fill="none" d="M 0 5.737499999999997 L 1.4 7.612499999999997 L 2.8 6.975000000000001 L 4.2 5.462499999999999 L 5.6 5.625 L 7 5.862499999999997 L 8.4 7.625 L 9.8 7.237499999999997 L 11.2 10.324999999999996 L 12.6 13.162500000000001 L 14 13.712499999999999 L 15.4 14 L 16.8 12.8125 L 18.2 12.912500000000001 L 19.6 12.774999999999999 L 21 18.5625 L 22.4 15.774999999999999 L 23.8 17.8375 L 25.2 10.350000000000001 L 26.6 14.137499999999996 L 28 20.8375 L 29.4 15.024999999999999 L 30.8 12.637499999999996 L 32.2 12.074999999999996 L 33.6 8.649999999999999 L 35 6.5625 L 36.4 10.412500000000001 L 37.8 10.337499999999999 L 39.2 10.787500000000001 L 40.6 14.037500000000001 L 42 15.774999999999999 L 43.4 17.15 L 44.8 20.75 L 46.2 14.4375 L 47.6 15.25 L 49 17.475 L 50.4 22.6875 L 51.8 30.0625 L 53.2 37.4125 L 54.6 38.4" visibility="visible" data-z-index="2" class="highcharts-tracker-line" stroke-linecap="round" stroke-linejoin="round" stroke="rgba(192,192,192,0.0001)" stroke-width="21"></path></g><g class="highcharts-markers highcharts-series-0 highcharts-area-series highcharts-tracker" data-z-index="0.1" opacity="1" transform="translate(0,0) scale(1 1)" clip-path="none"></g></g><text x="70" text-anchor="middle" class="highcharts-title" data-z-index="4" style="color:#333333;font-size:18px;display:none;fill:#333333;" y="24"></text><text x="70" text-anchor="middle" class="highcharts-subtitle" data-z-index="4" style="color:#666666;fill:#666666;" y="24"></text><text x="10" text-anchor="start" class="highcharts-caption" data-z-index="4" style="color:#666666;fill:#666666;" y="47"></text><g class="highcharts-axis-labels highcharts-xaxis-labels" data-z-index="7"></g><g class="highcharts-axis-labels highcharts-yaxis-labels" data-z-index="7"></g></svg>