<svg id="레이어_1" data-name="레이어 1" xmlns="http://www.w3.org/2000/svg" viewBox="0 0 30 20"><defs><style>.cls-1{fill:#fff;}.cls-2{fill:#ed2939;}</style></defs><title>컬러대지 2</title><rect class="cls-1" width="30" height="20"/><rect class="cls-2" width="30" height="10"/><path class="cls-1" d="M4.4,5A3.6,3.6,0,0,1,7.83,1.41,3.8,3.8,0,1,0,6.6,8.8a3.83,3.83,0,0,0,1.23-.21A3.6,3.6,0,0,1,4.4,5Z"/><polygon class="cls-1" points="8.56 2.15 8.81 2.64 9.35 2.72 8.96 3.11 9.05 3.65 8.56 3.39 8.07 3.65 8.17 3.11 7.77 2.72 8.32 2.64 8.56 2.15"/><polygon class="cls-1" points="6.56 3.55 6.81 4.04 7.35 4.12 6.96 4.51 7.05 5.05 6.56 4.79 6.07 5.05 6.17 4.51 5.77 4.12 6.32 4.04 6.56 3.55"/><polygon class="cls-1" points="10.56 3.55 10.81 4.04 11.35 4.12 10.96 4.51 11.05 5.05 10.56 4.79 10.07 5.05 10.17 4.51 9.77 4.12 10.32 4.04 10.56 3.55"/><polygon class="cls-1" points="7.36 5.95 7.61 6.44 8.15 6.52 7.76 6.91 7.85 7.45 7.36 7.19 6.87 7.45 6.97 6.91 6.57 6.52 7.12 6.44 7.36 5.95"/><polygon class="cls-1" points="9.76 5.95 10.01 6.44 10.55 6.52 10.16 6.91 10.25 7.45 9.76 7.19 9.27 7.45 9.37 6.91 8.97 6.52 9.52 6.44 9.76 5.95"/></svg>