<svg xmlns="http://www.w3.org/2000/svg" width="14" height="10" viewBox="0 0 14 10">
  <defs>
    <style>
      .cls-1 {
        fill: #fff;
        fill-rule: evenodd;
      }
    </style>
  </defs>
  <g id="icon_sns_youtube">
    <path id="youtube" class="cls-1" d="M241.654,221.638a1.877,1.877,0,0,0-1.325-1.325,46.059,46.059,0,0,0-10.721,0,1.879,1.879,0,0,0-1.325,1.325,18.212,18.212,0,0,0,0,6.724,1.88,1.88,0,0,0,1.325,1.325,46.059,46.059,0,0,0,10.721,0,1.879,1.879,0,0,0,1.325-1.325A18.212,18.212,0,0,0,241.654,221.638Zm-8.188,5.81v-4.9L237.705,225Z" transform="translate(-228 -220)"/>
  </g>
</svg>
